<?xml version="1.0" standalone="no"?>
<!DOCTYPE svg PUBLIC "-//W3C//DTD SVG 20010904//EN"
 "http://www.w3.org/TR/2001/REC-SVG-20010904/DTD/svg10.dtd">
<svg version="1.0" xmlns="http://www.w3.org/2000/svg"
 width="300.000000pt" height="150.000000pt" viewBox="0 0 300.000000 150.000000"
 preserveAspectRatio="xMidYMid meet">

<g transform="translate(0.000000,150.000000) scale(0.100000,-0.100000)"
fill="#000000" stroke="none">
<path d="M890 1421 c-36 -9 -70 -19 -76 -23 -6 -4 -17 -34 -24 -66 -7 -33 -15
-64 -19 -70 -3 -6 -37 -24 -74 -41 -68 -31 -89 -53 -68 -74 8 -8 24 -7 63 6
29 9 53 15 55 14 1 -2 -7 -64 -18 -138 -30 -191 -38 -529 -14 -618 21 -81 62
-164 110 -218 46 -55 147 -105 218 -109 l52 -3 -48 9 c-163 30 -252 173 -251
405 1 159 83 688 112 717 5 5 60 20 123 32 62 12 114 27 116 33 4 12 -72 83
-90 83 -6 0 -36 -9 -66 -20 -29 -12 -55 -19 -57 -17 -2 2 5 29 15 60 11 32 17
56 13 56 -4 -1 -36 -9 -72 -18z"/>
<path d="M2107 1276 c-39 -30 -97 -235 -97 -343 0 -62 55 -125 95 -109 22 8
54 83 79 188 11 48 24 88 27 88 4 0 9 -21 12 -47 8 -77 72 -100 120 -44 24 29
74 187 63 199 -11 10 -23 -12 -35 -62 -7 -27 -21 -66 -32 -87 -35 -69 -51 -46
-42 59 5 67 5 69 -27 106 -55 62 -121 83 -163 52z m93 -61 c9 -11 4 -41 -25
-147 -35 -128 -48 -158 -61 -146 -21 22 10 237 42 285 17 27 27 29 44 8z"/>
<path d="M1826 1173 c11 -75 -70 -297 -155 -422 -43 -62 -76 -81 -67 -38 3 12
8 45 11 72 4 28 22 112 41 187 19 75 34 142 34 147 0 13 -99 15 -117 3 -20
-12 -96 -350 -90 -396 7 -49 20 -62 78 -77 41 -11 50 -10 73 4 51 34 136 179
176 302 29 88 42 104 34 40 -33 -251 -176 -528 -379 -732 -77 -78 -116 -109
-165 -132 -80 -38 -60 -41 24 -4 239 106 420 272 526 484 98 193 138 432 91
536 -22 46 -45 63 -90 63 -30 0 -31 -1 -25 -37z"/>
<path d="M1341 1062 c-19 -36 -231 -525 -231 -533 0 -5 -4 -9 -9 -9 -18 0 31
241 85 412 21 66 23 82 12 90 -13 9 -131 4 -148 -7 -10 -6 -57 -200 -76 -315
-17 -102 -18 -174 -3 -202 12 -22 82 -57 116 -58 32 0 51 34 143 250 46 107
87 200 92 205 6 6 7 -30 4 -93 -6 -125 0 -161 28 -172 35 -13 46 -3 34 32 -21
60 13 232 68 341 l25 48 -35 14 c-49 21 -93 19 -105 -3z"/>
</g>
</svg>
