<?xml version="1.0" standalone="no"?>
<!DOCTYPE svg PUBLIC "-//W3C//DTD SVG 20010904//EN"
 "http://www.w3.org/TR/2001/REC-SVG-20010904/DTD/svg10.dtd">
<svg version="1.0" xmlns="http://www.w3.org/2000/svg"
 width="900.000000pt" height="639.000000pt" viewBox="0 0 900.000000 639.000000"
 preserveAspectRatio="xMidYMid meet">

<g transform="translate(0.000000,639.000000) scale(0.100000,-0.100000)"
fill="#000000" stroke="none">
<path d="M6395 6380 c5 -9 45 -122 247 -705 152 -439 268 -789 268 -810 0 -11
15 -63 33 -115 l33 -95 105 -100 c57 -55 123 -117 145 -138 l41 -39 36 32 c44
38 72 106 63 154 -7 34 -58 90 -108 117 -59 32 -170 39 -224 13 -19 -9 -36
-15 -37 -13 -9 16 -216 623 -387 1134 -125 373 -199 575 -212 575 -5 0 -7 -4
-3 -10z"/>
<path d="M2328 6023 c23 -2 61 -2 85 0 23 2 4 4 -43 4 -47 0 -66 -2 -42 -4z"/>
<path d="M2188 6013 c17 -2 47 -2 65 0 17 2 3 4 -33 4 -36 0 -50 -2 -32 -4z"/>
<path d="M3913 6013 c9 -2 23 -2 30 0 6 3 -1 5 -18 5 -16 0 -22 -2 -12 -5z"/>
<path d="M4070 5999 c58 -4 134 -11 170 -14 120 -11 274 -24 360 -30 158 -12
373 -49 510 -89 100 -29 119 -27 28 3 -169 55 -386 95 -598 110 -254 19 -474
31 -525 30 -28 -1 -3 -5 55 -10z"/>
<path d="M2268 5973 c12 -2 30 -2 40 0 9 3 -1 5 -23 4 -22 0 -30 -2 -17 -4z"/>
<path d="M1958 5963 c28 -2 76 -2 105 0 28 2 5 3 -53 3 -58 0 -81 -1 -52 -3z"/>
<path d="M1185 5950 c3 -5 10 -10 16 -10 5 0 9 5 9 10 0 6 -7 10 -16 10 -8 0
-12 -4 -9 -10z"/>
<path d="M1598 5953 c6 -2 18 -2 25 0 6 3 1 5 -13 5 -14 0 -19 -2 -12 -5z"/>
<path d="M2148 5953 c12 -2 32 -2 45 0 12 2 2 4 -23 4 -25 0 -35 -2 -22 -4z"/>
<path d="M1488 5943 c6 -2 18 -2 25 0 6 3 1 5 -13 5 -14 0 -19 -2 -12 -5z"/>
<path d="M2243 5943 c9 -2 23 -2 30 0 6 3 -1 5 -18 5 -16 0 -22 -2 -12 -5z"/>
<path d="M2478 5943 c7 -3 16 -2 19 1 4 3 -2 6 -13 5 -11 0 -14 -3 -6 -6z"/>
<path d="M1221 5931 c-65 -5 -81 -9 -70 -17 10 -8 43 -8 127 1 62 7 115 15
119 19 7 6 -42 6 -176 -3z"/>
<path d="M2528 5933 c7 -3 16 -2 19 1 4 3 -2 6 -13 5 -11 0 -14 -3 -6 -6z"/>
<path d="M1948 5893 c12 -2 30 -2 40 0 9 3 -1 5 -23 4 -22 0 -30 -2 -17 -4z"/>
<path d="M2153 5873 c9 -2 23 -2 30 0 6 3 -1 5 -18 5 -16 0 -22 -2 -12 -5z"/>
<path d="M2275 5846 c116 -33 151 -51 213 -109 99 -94 170 -227 367 -692 145
-342 141 -313 80 -492 -19 -56 -38 -121 -41 -144 l-7 -41 -13 32 c-8 18 -14
59 -14 91 0 55 -11 75 -24 47 -4 -7 -4 -2 -1 12 3 14 8 63 12 110 6 87 -2 118
-63 255 -7 17 -26 64 -43 105 -33 85 -88 215 -104 245 -6 11 -17 33 -25 48
-26 51 -23 21 4 -39 64 -143 214 -519 214 -535 0 -19 -18 0 -24 26 -9 37 -76
179 -81 173 -3 -2 13 -49 36 -104 70 -170 71 -178 43 -297 -17 -70 -33 -89
-59 -67 -8 7 -29 10 -45 8 -17 -3 -33 -1 -35 3 -7 10 -45 -1 -45 -13 0 -6 -7
-5 -15 2 -8 7 -15 19 -15 27 0 10 -6 13 -16 9 -24 -9 -49 21 -34 39 14 17 9
19 -54 30 l-38 6 23 25 c18 20 20 24 6 24 -9 0 -14 6 -11 13 3 9 -14 18 -53
28 -50 13 -58 18 -58 39 0 20 -5 25 -33 26 -18 1 -41 9 -51 18 -27 24 -61 21
-61 -6 0 -21 0 -21 -27 4 -20 18 -43 27 -82 31 -29 4 -59 11 -67 18 -8 6 -40
9 -80 7 -48 -2 -69 1 -71 10 -6 17 -42 15 -49 -3 -8 -20 -16 -19 -42 5 -24 23
-86 30 -104 12 -7 -7 4 -18 41 -36 50 -26 65 -49 37 -59 -8 -3 -20 1 -26 9 -7
8 -21 14 -31 14 -10 0 -23 9 -29 20 -6 11 -16 20 -23 20 -7 0 -25 7 -42 16
-39 20 -85 26 -101 13 -7 -6 -19 -7 -26 -3 -7 5 -26 9 -41 10 -15 1 -31 4 -34
8 -10 10 66 262 128 423 65 171 188 419 225 454 30 28 88 27 279 -2 141 -21
203 -38 279 -76 26 -13 45 -19 41 -13 -11 18 -119 68 -184 85 -35 9 -144 27
-244 40 -175 23 -183 23 -207 6 -31 -21 -155 -267 -230 -454 -30 -75 -56 -135
-57 -133 -5 5 53 164 93 257 20 46 43 99 50 117 8 17 12 32 9 32 -20 0 -180
-402 -241 -601 -25 -85 -48 -156 -50 -157 -1 -2 -1 27 2 64 3 51 1 65 -7 57
-6 -6 -17 -9 -24 -7 -6 3 -17 -5 -23 -18 l-11 -23 -1 25 -1 25 -14 -25 c-8
-14 -14 -33 -15 -42 0 -10 -5 -18 -11 -18 -6 0 -8 9 -4 20 5 14 2 20 -9 20 -9
0 -16 5 -16 10 0 6 5 10 10 10 6 0 10 5 10 10 0 6 -9 10 -19 10 -14 0 -18 -5
-14 -20 5 -19 4 -19 -31 -5 -19 8 -48 15 -63 16 -33 1 -107 27 -80 28 12 1 16
6 11 14 -6 10 -4 10 7 0 18 -17 34 -17 20 0 -6 8 -8 17 -4 20 3 4 0 13 -7 21
-13 16 -83 19 -73 3 3 -5 -4 -4 -15 2 -13 7 -23 7 -27 1 -3 -5 -12 -7 -20 -4
-8 4 -12 10 -9 15 3 5 -1 9 -10 9 -8 0 -16 5 -18 12 -3 7 -18 12 -34 13 -20 1
-28 5 -25 15 15 56 13 67 -15 74 -15 4 -31 3 -37 -3 -6 -6 -15 -11 -19 -11
-13 0 -9 28 4 32 7 3 11 18 10 36 -3 39 89 226 177 360 55 83 67 96 115 118
77 35 176 54 366 68 125 10 147 14 89 15 -163 3 -385 -33 -476 -75 -62 -30
-179 -209 -298 -457 -123 -257 -126 -345 -15 -430 54 -41 167 -114 230 -149
25 -14 80 -44 123 -67 42 -24 77 -49 77 -57 0 -8 11 -15 28 -15 48 -3 69 -6
81 -14 8 -4 14 1 18 15 5 20 7 19 21 -10 17 -36 100 -78 163 -84 21 -2 42 -7
48 -11 6 -3 11 -2 11 4 0 5 -43 31 -95 57 -91 45 -119 64 -96 64 6 0 27 -9 47
-20 20 -12 41 -19 48 -17 6 2 -2 11 -19 20 -61 33 -12 15 142 -51 224 -97 326
-141 418 -178 55 -23 82 -40 87 -55 5 -12 6 -24 3 -27 -2 -3 -44 12 -92 32
-49 21 -106 43 -128 49 -22 5 -42 13 -45 17 -15 21 -157 76 -168 65 -11 -11
73 -66 168 -111 19 -9 103 -45 185 -82 83 -36 164 -76 181 -88 40 -31 108 -60
168 -74 27 -6 116 -40 198 -76 82 -36 154 -64 160 -62 7 3 -35 23 -93 47 -102
41 -162 70 -146 71 4 0 58 -20 119 -45 62 -25 118 -45 125 -45 8 0 16 -6 19
-14 3 -8 28 -23 55 -32 27 -10 49 -24 49 -32 0 -8 -13 -42 -30 -76 -16 -34
-43 -106 -61 -160 -24 -74 -35 -96 -46 -92 -8 3 -19 6 -24 6 -4 0 -6 13 -3 29
4 17 1 32 -5 36 -9 5 -9 10 -1 20 8 9 -7 18 -67 39 -43 15 -83 34 -89 42 -7 8
-56 31 -109 50 -91 32 -195 89 -195 106 0 5 -6 8 -14 8 -8 0 -34 20 -59 45
-26 25 -51 45 -56 45 -6 0 -20 11 -33 24 -24 25 -134 86 -155 86 -7 0 -28 9
-48 20 -20 11 -43 20 -51 20 -9 0 -35 12 -60 26 -24 14 -50 24 -57 21 -7 -3
-21 1 -32 9 -28 21 -41 17 -20 -6 29 -32 13 -32 -35 0 -25 17 -69 37 -97 45
-33 10 -53 21 -53 30 0 8 -5 15 -11 15 -5 0 -7 -6 -4 -12 4 -7 0 -5 -8 5 -8 9
-25 17 -39 17 -14 0 -33 9 -43 20 -13 14 -14 20 -5 20 9 0 8 6 -5 20 -10 11
-26 20 -35 20 -10 0 -23 7 -30 15 -19 22 -28 18 -22 -10 3 -16 -2 -33 -13 -45
-25 -27 -38 -25 -33 5 3 13 1 22 -3 19 -13 -8 -11 -96 2 -92 6 2 9 6 8 8 -2 3
9 17 24 32 30 30 45 29 91 -9 16 -13 52 -36 80 -50 28 -14 74 -44 101 -66 60
-49 75 -63 56 -52 -10 5 -12 4 -7 -4 4 -6 12 -9 17 -6 11 7 164 -96 192 -130
6 -6 11 -5 14 4 4 11 8 9 17 -7 13 -24 184 -201 212 -220 10 -7 3 -5 -16 4
-18 9 -40 23 -48 31 -8 8 -21 12 -29 9 -9 -4 -11 -2 -7 6 5 8 2 9 -9 5 -9 -3
-19 -1 -23 5 -5 7 -2 8 7 4 8 -4 6 -1 -3 7 -10 8 -14 18 -10 22 4 5 2 5 -5 2
-6 -4 -18 -1 -26 7 -11 11 -17 12 -27 3 -10 -10 -10 -7 0 13 7 14 9 22 5 18
-5 -4 -15 -2 -24 5 -14 10 -14 10 -6 -3 6 -9 2 -8 -7 3 -9 10 -25 17 -35 15
-13 -2 -17 2 -15 16 3 18 2 18 -14 5 -16 -13 -16 -12 -6 8 8 15 9 24 2 28 -6
4 -10 3 -9 -2 5 -27 -5 -23 -17 7 -13 33 -14 33 -9 5 4 -20 3 -25 -4 -16 -5 8
-14 10 -21 6 -8 -5 -11 -4 -6 3 4 6 -6 24 -21 39 -23 23 -24 24 -8 4 l20 -26
-21 18 c-11 9 -24 14 -29 10 -4 -5 -5 -3 -1 4 7 13 -4 25 -52 54 -18 11 -30
24 -27 29 6 9 -7 14 -27 11 -4 0 -4 7 -1 17 6 14 4 15 -9 4 -13 -10 -15 -9
-13 13 2 14 -1 23 -6 19 -5 -3 -7 -9 -4 -14 3 -5 1 -12 -5 -15 -6 -4 -9 -1 -8
7 2 7 -5 13 -14 13 -9 0 -20 4 -25 9 -4 5 -3 6 4 2 6 -3 14 -2 17 2 7 11 -34
9 -54 -3 -9 -5 -7 1 5 16 11 13 16 21 11 16 -5 -4 -18 1 -29 10 -11 10 -17 13
-14 6 4 -6 3 -15 -3 -18 -6 -4 -10 -3 -9 2 3 19 -2 33 -12 33 -5 0 -7 -6 -3
-12 4 -8 3 -10 -2 -5 -5 5 -10 13 -10 18 -1 5 -2 12 -3 16 0 4 -7 -2 -15 -12
-13 -18 -14 -17 -11 7 2 20 -1 25 -13 23 -10 -2 -21 -4 -25 -4 -5 -1 -5 -6 -1
-13 4 -7 3 -8 -4 -4 -7 4 -12 1 -12 -9 0 -11 -5 -15 -15 -12 -8 4 -17 2 -20
-3 -14 -23 -23 -6 -30 50 -5 45 -3 67 9 91 20 41 21 70 2 63 -10 -4 -18 7 -27
35 -13 45 -39 75 -46 54 -2 -7 -10 -10 -18 -7 -7 3 -16 0 -20 -6 -8 -12 33
-49 55 -50 22 0 51 -55 37 -69 -16 -16 -34 -14 -41 5 -4 10 -12 14 -23 10 -10
-4 -14 -4 -11 0 13 12 -11 44 -29 37 -11 -4 -14 -3 -9 5 4 7 1 21 -7 32 -13
18 -15 19 -21 5 -3 -9 -4 -20 -2 -23 2 -4 -7 -15 -20 -25 -23 -17 -24 -17 -57
15 -58 56 -118 100 -135 102 -11 1 -18 -8 -20 -22 -2 -13 -8 -20 -15 -17 -7 3
-3 0 7 -7 44 -30 86 -71 80 -79 -3 -5 -1 -9 4 -9 14 0 64 -49 66 -64 1 -8 8
-22 16 -32 13 -14 -39 15 -167 97 -13 7 -23 22 -23 32 0 10 -4 16 -8 13 -14
-8 -72 32 -84 59 -6 14 -15 25 -20 25 -5 0 -7 17 -4 38 3 20 5 38 6 40 0 2 8
1 18 -2 12 -4 26 1 37 14 10 11 22 17 26 14 5 -3 17 -1 26 5 14 8 11 10 -20
16 -36 7 -46 18 -28 30 10 5 98 -43 134 -73 19 -17 22 -10 7 18 -5 10 -20 20
-33 24 -14 3 -34 24 -51 53 -15 27 -40 68 -54 93 -24 41 -27 55 -27 145 0 95
7 130 42 232 8 22 16 56 17 75 2 18 6 42 10 53 4 11 -2 3 -14 -18 -13 -24 -19
-46 -15 -60 5 -17 4 -19 -4 -7 -8 12 -11 11 -17 -5 -4 -11 -19 -50 -35 -86
-41 -100 -106 -326 -113 -394 -4 -35 -13 -65 -21 -71 -17 -12 -21 -39 -5 -29
6 3 10 0 9 -7 -1 -18 -17 -55 -19 -43 -1 6 -5 1 -10 -10 -14 -33 -12 -357 3
-401 7 -22 11 -52 8 -68 -5 -26 -7 -27 -19 -13 -8 9 -11 24 -8 34 3 10 2 24
-3 32 -8 12 -12 -13 -35 -194 -3 -16 -1 -46 4 -65 5 -19 16 -79 26 -132 9 -53
21 -95 25 -93 4 3 5 -4 2 -14 -5 -19 22 -127 37 -146 4 -5 10 -107 13 -225 11
-405 87 -673 216 -765 l42 -29 162 23 c89 13 173 30 185 38 29 18 55 75 85
187 l23 86 114 -82 c63 -45 293 -210 510 -367 861 -621 1050 -751 1090 -751
25 0 25 -2 26 -77 3 -189 123 -673 210 -846 26 -51 175 -229 243 -291 24 -21
82 -57 130 -80 l86 -41 115 2 c140 2 240 26 358 86 67 33 88 50 107 82 27 47
98 266 116 357 6 35 13 65 15 67 1 2 36 -13 78 -32 107 -51 224 -85 362 -103
138 -19 341 -22 400 -5 22 6 128 22 235 36 319 41 406 53 574 80 88 14 205 32
260 41 508 81 1159 268 1570 452 487 217 529 238 587 294 42 41 59 66 68 99
19 75 43 121 108 207 70 92 112 168 112 203 0 13 16 62 35 109 70 168 84 293
45 406 -23 67 -35 84 -35 49 0 -12 5 -21 10 -17 6 3 -1 -7 -14 -21 -14 -15
-21 -27 -17 -27 4 0 0 -7 -8 -16 -9 -8 -14 -20 -11 -24 3 -5 -5 -14 -17 -21
-13 -7 -25 -15 -28 -18 -9 -11 -101 -54 -116 -54 -7 0 -14 -3 -14 -7 0 -3 -8
-6 -17 -7 -10 0 -33 -5 -50 -11 -18 -6 -33 -7 -33 -2 0 5 -10 7 -23 4 -13 -2
-31 2 -40 9 -14 10 -5 12 55 12 61 1 84 6 138 32 36 18 86 53 112 78 42 43 45
49 37 76 -5 16 -13 43 -18 59 -13 40 -6 38 15 -5 9 -20 19 -33 22 -31 3 3 1
11 -4 18 -6 7 -11 27 -13 43 -2 17 -7 37 -13 45 -8 12 -9 12 -4 -3 5 -15 2
-16 -14 -7 -27 14 -32 25 -24 55 5 20 9 24 16 13 6 -9 7 -5 4 12 -3 14 -8 48
-11 75 -16 119 -92 348 -114 343 -3 -1 -20 6 -38 15 -85 45 -206 -10 -257
-117 -9 -20 -21 -36 -27 -36 -6 0 -8 -4 -5 -9 4 -5 0 -11 -6 -14 -19 -6 -49 4
-42 14 3 5 -3 6 -13 2 -15 -6 -16 -4 -6 8 10 13 10 16 -2 16 -8 0 -12 -4 -9
-8 2 -4 0 -10 -6 -14 -5 -3 -10 -1 -10 5 0 7 -6 5 -15 -4 -19 -18 -20 -33 -2
-17 17 13 27 5 20 -17 -3 -13 -1 -13 11 2 13 16 18 17 29 7 10 -10 9 -12 -3
-9 -8 2 -14 -2 -13 -9 3 -15 -30 -10 -35 6 -3 9 -8 9 -20 -1 -9 -7 -13 -8 -10
-3 3 6 2 19 -3 30 -7 18 -8 18 -9 -5 -2 -14 -2 -29 -1 -33 1 -5 -3 -5 -9 -2
-6 4 -9 14 -5 24 5 13 4 14 -7 3 -10 -10 -9 -18 6 -45 9 -17 11 -25 4 -17 -15
17 -40 20 -50 5 -5 -6 -8 -4 -8 4 0 11 -3 11 -13 -3 -12 -16 -13 -16 -13 3 0
11 3 18 7 15 4 -2 12 3 18 10 8 9 8 16 2 20 -5 4 -12 2 -16 -4 -4 -6 -11 -8
-16 -4 -5 3 -8 2 -7 -3 2 -4 -2 -9 -7 -10 -6 -2 -10 1 -10 6 0 5 -3 13 -7 17
-4 3 -6 -3 -3 -15 2 -11 -1 -21 -6 -21 -6 0 -7 -5 -3 -11 3 -6 9 -7 13 -3 3 5
13 10 21 12 10 1 9 -3 -5 -15 -20 -17 -20 -19 -3 -35 19 -19 25 -44 9 -33 -5
3 -12 1 -16 -4 -3 -5 -15 -8 -26 -6 -16 3 -19 0 -15 -12 4 -9 -2 -25 -11 -37
l-18 -21 23 19 c12 11 22 26 22 35 0 11 3 12 8 4 4 -7 17 -11 28 -11 25 2 29
34 7 68 -13 20 -13 23 -2 13 12 -10 18 -10 30 0 12 10 12 10 2 -3 -19 -21 -16
-34 5 -19 9 7 14 9 9 4 -4 -4 0 -20 9 -34 l15 -26 -20 23 -20 23 1 -30 c1 -19
5 -28 12 -24 6 4 3 -3 -7 -15 -11 -11 -27 -19 -38 -17 -10 2 -19 -1 -19 -6 0
-6 -5 -7 -10 -4 -8 5 -7 12 2 23 7 10 1 7 -12 -5 -16 -14 -35 -21 -54 -19 -18
2 -35 -3 -47 -15 -11 -11 -19 -15 -19 -10 0 4 -11 7 -25 6 -14 -2 -23 1 -19 6
3 5 0 9 -7 9 -8 0 -8 4 1 15 10 12 15 13 21 3 4 -6 5 -16 3 -20 -3 -4 -1 -8 4
-8 12 0 24 29 16 41 -3 5 0 9 5 9 10 0 15 -14 12 -33 -1 -5 3 -6 8 -2 6 3 7
13 4 23 -6 15 -5 15 10 3 9 -7 17 -10 17 -5 0 5 4 4 8 -2 5 -8 13 -4 24 11 15
20 15 25 2 41 -14 19 -14 19 -7 0 4 -12 3 -17 -4 -13 -6 4 -16 0 -23 -8 -12
-15 -35 -11 -26 4 3 4 -1 8 -9 8 -8 0 -12 -3 -10 -7 2 -3 -5 -11 -15 -18 -12
-7 -21 -8 -25 -2 -4 6 -11 8 -16 5 -5 -4 -9 1 -9 9 0 9 3 16 8 15 15 -2 52 14
52 23 0 5 -5 6 -12 2 -8 -5 -9 -2 -5 10 4 10 3 15 -3 11 -6 -3 -10 -12 -10
-20 0 -8 -5 -17 -11 -21 -8 -4 -9 1 -4 17 4 14 3 19 -2 12 -5 -7 -17 -12 -28
-12 -59 -2 -90 -8 -88 -18 3 -15 -30 -10 -35 5 -2 7 -8 12 -13 12 -6 0 -7 -5
-3 -12 4 -7 3 -8 -5 -4 -6 4 -9 12 -6 17 4 5 1 9 -4 9 -14 0 -14 -23 0 -37 9
-9 7 -11 -7 -9 -22 3 -44 -15 -36 -29 3 -5 2 -7 -3 -3 -4 4 -15 2 -24 -5 -14
-11 -15 -10 -1 8 8 11 19 23 24 26 4 4 4 9 -1 12 -11 7 -53 -40 -44 -49 3 -4
1 -4 -6 0 -6 3 -15 2 -18 -4 -4 -7 -12 -7 -18 -2 -14 10 -27 10 -47 -2 -8 -5
-12 -6 -8 -1 4 4 2 15 -5 24 -10 14 -10 14 5 3 12 -9 18 -10 23 -2 5 8 12 7
24 -4 10 -9 21 -13 24 -9 9 9 9 23 0 21 -5 0 -16 2 -26 7 -14 6 -16 10 -6 16
7 4 19 3 26 -3 7 -6 13 -7 13 -3 0 4 7 2 15 -5 13 -11 15 -9 12 8 -2 12 -6 25
-10 28 -4 4 1 17 10 28 10 12 11 16 4 9 -7 -6 -21 -9 -30 -6 -14 4 -14 3 -1
-6 8 -6 11 -11 6 -11 -5 0 -2 -7 5 -17 12 -14 12 -16 -1 -11 -8 2 -20 14 -26
26 -17 34 -26 40 -15 9 9 -22 7 -28 -8 -36 -10 -6 -21 -7 -25 -3 -4 3 -4 -2
-1 -13 7 -20 6 -20 -9 -1 -16 20 -16 20 -18 0 -1 -20 -5 -53 -7 -68 0 -5 -7
-3 -15 3 -11 10 -17 8 -25 -6 -6 -10 -11 -13 -11 -7 0 12 -45 13 -56 1 -7 -6
10 -11 29 -8 5 1 6 -3 2 -9 -4 -6 -13 -7 -23 -1 -9 5 -20 11 -23 13 -4 1 -15
-5 -26 -14 -19 -17 -46 -19 -60 -3 -4 4 -2 5 5 1 15 -9 16 10 1 20 -6 3 -9 17
-6 31 2 13 2 21 -1 18 -3 -2 -11 0 -17 5 -9 7 -17 5 -26 -7 -9 -11 -10 -14 -1
-9 6 4 12 2 12 -3 0 -15 -47 -14 -53 2 -4 9 -6 9 -6 -1 -1 -7 -5 -11 -10 -8
-4 3 -6 -7 -3 -22 l6 -27 6 25 c5 21 7 22 13 8 3 -10 2 -20 -4 -24 -6 -3 -8
-13 -5 -21 3 -8 2 -11 -3 -8 -5 3 -13 1 -16 -5 -4 -7 -12 -7 -18 -2 -7 4 -28
8 -47 8 -26 -1 -35 -5 -35 -18 0 -9 -4 -20 -9 -25 -5 -4 -6 -3 -3 3 4 6 -1 20
-9 30 -15 19 -15 19 -10 -1 5 -17 3 -16 -15 5 -15 18 -19 20 -15 7 4 -13 2
-16 -7 -10 -24 15 -38 12 -32 -7 3 -10 1 -21 -4 -25 -6 -3 -8 0 -5 8 3 8 -2
14 -11 14 -9 0 -14 -6 -11 -12 2 -6 -2 -12 -9 -12 -8 0 -11 7 -7 15 3 10 1 13
-6 8 -7 -4 -10 -2 -6 7 3 8 -2 14 -11 14 -18 0 -18 -2 -4 -30 7 -12 8 -19 4
-15 -5 4 -15 2 -24 -4 -13 -10 -14 -10 -3 2 17 20 15 29 -5 25 -10 -1 -17 -7
-16 -12 1 -5 -4 -10 -12 -10 -8 0 -12 4 -9 8 2 4 0 10 -6 14 -5 3 -10 -1 -10
-9 0 -8 -4 -17 -9 -20 -5 -4 -7 4 -3 16 5 20 4 21 -11 9 -9 -7 -14 -18 -10
-25 3 -6 3 -8 -2 -4 -4 4 -14 3 -22 -4 -8 -6 -13 -7 -11 -2 2 5 -2 9 -7 9 -6
0 -9 -4 -7 -8 1 -5 -2 -6 -7 -3 -5 3 -7 15 -4 26 3 12 10 17 17 13 23 -15 31
-9 32 23 0 24 -3 31 -11 24 -7 -5 -16 -6 -20 -2 -5 4 -5 2 -1 -5 3 -6 2 -14
-4 -18 -5 -3 -10 1 -10 9 0 8 -4 18 -10 21 -6 4 -7 -1 -3 -11 5 -13 3 -15 -8
-9 -8 4 -11 5 -7 0 4 -4 1 -20 -8 -36 -13 -25 -13 -28 1 -23 8 3 13 9 11 13
-3 4 0 13 5 21 6 11 8 4 6 -22 -2 -21 -7 -41 -11 -45 -4 -5 -6 -1 -4 7 2 9 -5
14 -17 14 -12 0 -19 -5 -17 -14 2 -8 0 -11 -5 -7 -4 5 -8 13 -8 18 0 5 -4 8
-10 7 -5 -2 -9 -6 -8 -9 1 -3 -4 -6 -12 -6 -8 0 -12 4 -9 8 2 4 0 10 -5 13 -5
4 -12 -4 -14 -16 -4 -22 -4 -22 -6 -2 0 12 6 27 15 34 8 8 14 9 12 4 -2 -5 0
-10 5 -11 17 -6 19 -2 7 13 -11 12 -11 15 0 12 7 -2 15 3 17 10 6 17 -12 15
-27 -3 -7 -8 -17 -12 -23 -8 -5 3 -7 1 -3 -5 3 -6 2 -13 -3 -16 -5 -4 -12 2
-14 11 -4 17 -5 17 -6 1 0 -10 -5 -18 -10 -18 -5 0 -7 -10 -3 -22 3 -13 1 -19
-6 -15 -10 7 -10 18 1 47 9 25 5 47 -10 47 -7 0 -11 -3 -8 -5 3 -3 -1 -12 -8
-21 -11 -14 -10 -14 6 -2 15 12 17 11 17 -3 0 -12 -7 -16 -22 -14 -14 2 -22 9
-20 18 2 10 -5 7 -20 -8 -14 -12 -28 -19 -31 -15 -4 3 -7 -7 -6 -23 0 -25 2
-26 9 -9 5 11 9 16 10 10 1 -5 5 -1 10 10 l9 20 1 -20 1 -20 10 20 c9 19 9 18
5 -2 -2 -13 0 -25 4 -28 5 -3 10 4 12 16 2 15 6 11 15 -18 10 -32 9 -35 -2
-20 -10 13 -14 15 -18 5 -4 -10 -6 -10 -6 1 -1 10 -4 11 -15 2 -10 -9 -16 -9
-21 -1 -5 8 -11 5 -20 -6 -12 -17 -14 -16 -32 14 -11 18 -23 29 -28 24 -5 -4
-5 -1 -1 6 4 7 12 10 17 7 5 -4 9 -2 9 4 0 5 -9 9 -20 8 -18 -1 -24 -10 -21
-29 0 -5 -2 -7 -7 -5 -8 2 -12 -6 -12 -25 0 -9 4 -8 11 2 7 10 9 11 7 2 -2 -8
-7 -13 -12 -12 -5 1 -13 -4 -18 -12 -6 -9 -7 -5 -4 12 6 25 6 25 -5 3 -7 -13
-16 -23 -21 -23 -5 0 -7 -4 -3 -9 3 -5 1 -13 -5 -16 -6 -4 -9 -3 -8 2 2 4 -2
9 -7 11 -6 1 -10 -2 -10 -7 0 -5 -4 -13 -9 -18 -5 -4 -6 -3 -3 3 4 7 0 17 -7
23 -11 10 -15 8 -19 -6 -4 -17 -5 -17 -6 0 0 9 -6 17 -12 17 -5 0 -7 -6 -3
-12 4 -7 -2 -5 -13 5 -18 16 -21 16 -27 2 -3 -9 -10 -14 -15 -10 -5 3 -13 1
-16 -5 -5 -8 -11 -8 -20 0 -8 7 -19 9 -24 6 -6 -4 -15 3 -21 15 -9 17 -9 20 0
14 8 -5 11 -3 8 6 -3 8 -10 13 -16 12 -6 -2 -9 4 -6 12 4 8 1 15 -4 15 -16 0
-24 -18 -12 -25 5 -3 10 -11 10 -17 0 -6 -7 -5 -17 3 -16 13 -17 12 -4 -4 10
-13 11 -21 3 -29 -6 -6 -8 -18 -4 -27 5 -14 4 -14 -14 -1 -15 11 -16 11 -6 0
6 -8 11 -23 11 -34 -1 -18 -2 -18 -6 -3 -2 9 -9 15 -14 12 -5 -4 -9 -1 -9 6 0
7 -2 10 -5 7 -3 -3 -34 24 -68 59 -54 57 -137 115 -137 97 0 -4 -6 -2 -13 4
-21 18 -126 31 -207 27 -103 -6 -232 -52 -286 -104 -12 -11 -24 -18 -27 -15
-2 3 -12 -7 -21 -21 -9 -14 -24 -24 -33 -23 -9 2 -18 -4 -20 -12 -4 -13 -3
-13 7 0 10 13 11 13 7 0 -2 -8 -9 -16 -15 -16 -25 -3 -27 -5 -12 -15 13 -9 13
-10 0 -6 -8 2 -24 -3 -35 -12 -17 -14 -18 -14 -8 0 9 11 9 19 2 26 -7 7 -4 10
12 9 12 0 24 6 26 14 4 13 3 13 -6 0 -10 -14 -16 -7 -11 15 1 6 -10 -1 -24
-14 -14 -14 -26 -21 -26 -17 0 5 -6 3 -13 -3 -8 -6 -17 -8 -20 -4 -4 3 -7 1
-7 -5 0 -6 5 -14 10 -17 6 -3 10 -1 10 6 0 7 3 10 6 6 12 -12 -7 -28 -20 -18
-7 6 -17 7 -21 3 -5 -4 -5 -1 -1 5 4 7 2 13 -3 13 -6 0 -11 5 -11 11 0 5 5 7
12 3 7 -4 8 -3 4 5 -12 19 -28 0 -22 -28 l5 -26 -11 26 c-8 19 -18 27 -36 27
-16 0 -20 -3 -11 -9 7 -4 16 -6 19 -4 4 2 7 -2 7 -10 0 -8 -4 -15 -9 -15 -4 0
-8 4 -8 10 0 5 -15 8 -32 7 -26 -2 -33 -7 -31 -22 2 -20 1 -20 -13 -1 -13 18
-19 15 -15 -7 1 -5 -3 -6 -9 -2 -6 3 -8 10 -5 15 3 5 0 12 -6 16 -6 3 -15 0
-20 -7 -6 -10 -9 -11 -9 -1 0 6 -5 12 -11 12 -5 0 -8 -4 -4 -9 3 -5 0 -13 -6
-17 -7 -4 -9 -3 -5 4 3 6 1 14 -5 17 -5 4 -8 13 -5 21 3 8 0 11 -9 8 -9 -4
-26 18 -51 63 -120 217 -447 661 -728 989 -159 184 -272 311 -298 334 l-28 25
312 3 c172 1 331 4 353 7 22 2 132 7 245 11 113 3 264 9 336 13 112 5 136 4
158 -10 21 -12 44 -15 94 -12 88 5 105 7 119 16 6 4 146 8 310 9 322 2 383 5
383 21 0 6 -3 7 -6 4 -4 -3 -16 -2 -27 4 -14 8 -18 8 -13 0 10 -15 -7 -14 -23
2 -11 10 -12 9 -7 -1 6 -10 -9 -12 -67 -10 -45 1 -73 6 -70 12 4 5 1 6 -7 1
-8 -5 -62 -9 -121 -9 -163 -1 -108 11 90 20 97 4 181 8 186 9 6 1 17 -2 25 -5
29 -13 72 -21 66 -12 -3 5 7 7 22 4 24 -5 24 -6 7 -13 -16 -6 -17 -8 -3 -8 9
-1 20 4 23 9 5 8 11 7 21 -1 8 -6 14 -8 14 -3 0 5 36 8 81 6 77 -3 332 16 520
39 81 11 86 13 96 40 6 16 18 29 27 29 15 0 289 35 356 46 45 7 168 32 200 41
22 6 24 5 11 -10 -12 -15 -11 -17 3 -17 10 0 26 5 38 11 19 10 18 11 -11 27
-16 9 -72 56 -123 103 -51 48 -117 108 -147 135 -30 27 -66 60 -81 74 -243
223 -754 625 -1060 832 -131 89 -319 200 -358 212 -12 4 -38 24 -57 44 -26 27
-37 34 -43 24 -5 -8 -16 -10 -27 -6 -13 5 -16 4 -11 -4 9 -15 -9 -15 -89 -2
-437 70 -1512 74 -2211 9 l-120 -11 -32 31 c-27 28 -34 30 -53 20 -17 -9 -31
-8 -61 1 -37 11 -39 12 -21 25 10 8 14 14 8 14 -5 0 -18 -6 -28 -13 -16 -13
-16 -15 9 -31 14 -9 23 -19 20 -22 -3 -4 -25 7 -49 24 -38 28 -123 60 -133 50
-2 -2 24 -18 59 -37 34 -18 79 -45 99 -60 l37 -26 -29 -26 c-17 -15 -30 -36
-30 -49 0 -13 28 -84 61 -158 103 -228 684 -1362 720 -1407 5 -6 7 -13 4 -16
-5 -4 52 -73 285 -344 193 -224 256 -302 390 -480 218 -288 396 -579 415 -679
l6 -30 -15 33 c-9 18 -30 47 -48 65 -17 18 -29 26 -24 20 4 -7 2 -13 -3 -13
-19 0 -26 5 -23 15 2 6 -2 4 -9 -2 -18 -18 -29 -16 -30 5 0 9 -3 12 -5 6 -3
-7 -14 -10 -24 -7 -11 3 -17 10 -13 17 4 8 2 7 -7 -1 -15 -14 -43 -5 -33 11 5
8 3 8 -8 0 -10 -8 -42 -4 -129 18 -183 46 -403 115 -482 152 -67 31 -126 76
-100 76 12 0 -1 59 -15 69 -5 3 -9 13 -11 21 -11 51 -205 248 -352 358 -63 48
-118 87 -122 88 -5 1 -12 2 -18 3 -5 0 -10 8 -10 17 0 12 -3 14 -13 6 -10 -9
-22 -4 -49 18 -20 17 -39 26 -42 22 -3 -5 -18 -7 -32 -4 -19 3 -25 1 -20 -7
11 -17 -11 -40 -33 -34 -10 2 -25 -3 -34 -11 -9 -9 -18 -13 -20 -9 -3 5 -28 6
-56 5 -28 -2 -49 -7 -47 -10 5 -8 -73 -7 -80 1 -3 3 5 8 18 12 13 4 33 16 46
26 13 10 36 20 52 24 18 4 27 11 24 19 -3 8 8 18 25 26 17 7 31 16 31 21 0 12
-17 11 -25 -1 -3 -5 -16 -10 -28 -10 -20 0 -20 0 -1 15 12 10 -3 7 -46 -8 -36
-12 -70 -29 -77 -37 -8 -11 -15 -12 -23 -4 -8 8 -2 35 21 100 34 96 67 153 79
135 3 -6 21 -16 39 -21 39 -11 72 1 120 44 19 17 30 24 26 16 -23 -41 -86
-128 -110 -153 -28 -27 -28 -27 -4 -19 22 8 82 76 91 103 3 10 17 10 67 0 55
-11 66 -10 87 4 52 34 58 115 17 247 -20 66 -31 88 -47 92 -11 3 -17 8 -14 11
4 4 42 0 85 -9 68 -13 257 -36 298 -36 8 0 15 5 15 10 0 6 -13 10 -29 10 -48
0 -314 41 -333 51 -23 13 -48 64 -83 169 -15 47 -38 109 -51 139 -29 65 -29
73 -3 147 11 32 21 86 22 119 0 53 -7 78 -67 215 -37 85 -88 202 -113 260
-198 460 -287 578 -481 640 -51 17 -102 30 -115 29 -12 0 14 -11 58 -23z m958
-73 c-13 -2 -35 -2 -50 0 -16 2 -5 4 22 4 28 0 40 -2 28 -4z m-115 -10 c-10
-2 -28 -2 -40 0 -13 2 -5 4 17 4 22 1 32 -1 23 -4z m-110 -10 c-10 -2 -26 -2
-35 0 -10 3 -2 5 17 5 19 0 27 -2 18 -5z m322 -9 c0 -8 5 -12 10 -9 6 4 8 11
5 16 -4 5 -1 9 6 9 6 0 9 -8 7 -18 -4 -13 1 -18 16 -20 62 -4 139 -3 306 3
230 9 327 9 508 2 173 -7 184 -14 149 -85 -12 -26 2 -59 23 -54 6 1 9 -2 5 -8
-3 -5 -1 -10 6 -10 7 0 9 -3 6 -6 -4 -4 -12 -2 -19 3 -20 16 -46 12 -65 -10
-11 -13 -12 -17 -4 -12 11 6 13 4 8 -11 -7 -18 -6 -18 9 1 16 20 16 20 11 -3
-6 -27 9 -20 16 8 3 13 1 18 -5 13 -7 -4 -8 -1 -4 6 6 9 12 9 25 -3 10 -9 20
-13 24 -10 3 4 4 -6 1 -21 -3 -18 -1 -24 7 -20 8 5 8 2 1 -11 -5 -11 -7 -26
-5 -34 4 -12 3 -12 -5 -2 -5 8 -13 14 -18 15 -9 2 -9 5 0 45 3 13 1 20 -5 17
-5 -4 -7 -11 -4 -16 4 -5 1 -9 -5 -9 -6 0 -9 -4 -5 -9 3 -5 1 -12 -5 -16 -5
-3 -10 0 -10 7 0 10 -3 9 -9 -2 -12 -18 -5 -31 13 -24 9 3 13 -2 12 -18 -1
-18 4 -23 22 -22 16 1 22 -3 18 -13 -4 -8 -1 -11 5 -8 6 4 8 13 5 21 -3 8 -1
24 5 36 l10 23 -5 -22 c-2 -13 0 -23 5 -23 6 0 6 -7 0 -19 -6 -10 -7 -21 -4
-25 12 -12 -33 -6 -46 7 -10 8 -12 9 -7 0 5 -9 -3 -11 -29 -9 -19 2 -33 1 -30
-3 2 -4 29 -9 61 -10 44 -2 59 2 69 16 13 16 13 16 8 -7 -6 -23 -5 -24 12 -10
17 14 17 14 5 -7 -8 -12 -18 -19 -22 -17 -4 3 -8 -2 -8 -10 0 -10 -7 -13 -21
-11 -12 3 -19 1 -15 -2 7 -8 41 -15 74 -17 16 -1 22 -7 22 -24 0 -14 4 -21 11
-17 6 4 8 14 5 22 -3 8 -1 11 5 8 5 -4 7 -16 3 -27 -4 -15 -3 -18 6 -13 9 5
11 4 6 -3 -4 -7 0 -22 8 -34 15 -21 15 -21 12 8 -3 22 0 31 10 31 10 0 11 -4
4 -11 -17 -17 -11 -29 8 -15 14 11 15 11 5 -1 -7 -8 -13 -25 -13 -38 0 -13 -4
-20 -10 -17 -17 10 -23 -23 -8 -43 11 -16 15 -17 25 -6 8 8 9 15 3 19 -6 3
-10 0 -10 -7 0 -8 -5 -6 -11 5 -6 10 -8 21 -5 24 3 4 6 0 6 -7 0 -9 5 -7 14 5
8 11 12 24 9 30 -4 6 -2 6 3 2 5 -5 9 -14 9 -20 1 -7 6 -11 12 -10 6 1 10 -5
9 -15 0 -9 5 -16 12 -14 7 1 15 -5 18 -13 3 -8 11 -12 17 -8 6 4 7 1 2 -7 -6
-10 -11 -9 -22 5 -10 15 -13 15 -13 4 0 -8 5 -20 12 -27 6 -6 13 -19 14 -28 1
-9 0 -13 -3 -10 -4 3 -12 1 -19 -5 -8 -7 -14 -7 -19 1 -4 6 -3 9 2 8 4 -2 8 2
8 7 0 6 -4 9 -9 7 -5 -2 -5 3 1 10 7 8 7 22 2 37 -8 19 -12 21 -24 11 -8 -7
-15 -18 -14 -24 0 -7 2 -6 6 2 7 19 19 14 20 -8 2 -18 -8 -25 -30 -21 -5 1 -6
-3 -2 -8 3 -6 12 -8 20 -5 10 4 13 0 10 -15 -2 -12 0 -19 6 -16 5 4 9 4 9 1 0
-2 3 -12 7 -22 4 -12 3 -15 -5 -10 -8 5 -10 2 -6 -9 6 -14 8 -13 21 5 8 11 19
18 24 15 5 -4 9 1 9 9 0 8 4 17 9 20 5 4 7 -2 4 -13 -3 -10 1 -22 8 -27 9 -5
11 -2 6 12 -7 18 -6 18 6 2 8 -10 17 -15 20 -12 3 4 4 -6 1 -21 -3 -18 -1 -24
7 -20 8 5 8 1 -1 -15 -6 -12 -18 -19 -25 -16 -8 3 -16 0 -18 -7 -3 -7 -5 -1
-4 13 0 14 4 30 9 37 9 12 -5 26 -30 29 -9 2 -11 -3 -6 -14 4 -9 8 -31 8 -49
1 -17 4 -29 8 -27 11 7 20 -16 13 -34 -6 -15 -8 -15 -15 3 -8 18 -9 18 -9 2
-1 -11 -6 -15 -13 -11 -7 4 -8 3 -4 -5 4 -6 11 -9 16 -6 5 3 7 -11 6 -30 -2
-20 1 -38 6 -41 4 -3 6 -9 4 -13 -3 -4 1 -8 9 -8 8 0 13 3 11 6 -2 3 3 12 10
19 13 12 14 10 8 -14 -6 -21 -4 -25 7 -19 12 7 12 6 1 -7 -8 -10 -9 -19 -3
-22 5 -3 11 0 14 6 2 7 4 -1 3 -19 0 -17 -4 -29 -8 -27 -5 3 -8 1 -8 -5 0 -5
5 -13 11 -16 6 -4 8 -13 5 -20 -6 -16 17 -38 30 -27 4 4 2 -1 -5 -10 -7 -10
-11 -24 -8 -33 9 -23 -9 -27 -33 -7 -17 13 -20 24 -15 45 4 15 11 27 16 27 5
0 9 4 9 10 0 5 -6 8 -12 6 -7 -1 -10 -1 -6 1 5 3 3 14 -3 25 -7 13 -7 18 -1
14 6 -3 9 1 8 9 -3 20 -16 31 -17 14 -4 -75 -8 -91 -26 -111 -11 -13 -23 -30
-26 -38 -3 -8 -5 -3 -4 12 1 15 6 24 12 20 5 -3 4 1 -2 10 -7 8 -9 19 -5 24 4
4 -1 2 -10 -5 -19 -14 -25 -26 -8 -16 6 4 7 -1 3 -11 -5 -15 -7 -15 -15 0 -6
10 -4 24 3 38 12 22 11 22 -7 8 -10 -8 -25 -22 -33 -30 -7 -8 -5 -2 4 14 9 16
13 26 7 22 -5 -3 -15 1 -22 9 -16 19 -30 10 -31 -18 0 -21 -1 -21 -8 -2 -5 11
-7 23 -4 28 8 14 -4 7 -21 -12 -13 -14 -14 -21 -5 -27 8 -5 10 -3 4 6 -6 9 -4
11 4 6 9 -6 8 -13 -5 -27 -17 -19 -40 -16 -28 3 4 7 2 8 -5 4 -6 -4 -9 -12 -6
-17 4 -5 4 -9 1 -9 -2 0 -12 -3 -20 -6 -12 -5 -15 -2 -10 12 5 16 4 16 -5 4
-10 -14 -16 -7 -11 15 1 5 -7 2 -17 -6 -10 -9 -23 -14 -30 -12 -6 2 -14 -1
-18 -6 -4 -7 1 -8 12 -4 15 6 16 4 5 -9 -10 -13 -10 -18 -1 -24 7 -4 9 -3 5 4
-3 6 -2 13 4 17 5 3 10 -1 10 -9 0 -8 4 -18 10 -21 7 -4 7 3 0 19 -5 14 -7 26
-5 26 3 0 8 0 13 0 4 0 8 -4 8 -10 1 -5 2 -11 4 -12 1 -2 3 -13 4 -26 2 -13
11 -31 21 -40 10 -9 15 -11 11 -4 -4 6 -3 12 2 12 6 0 8 9 5 19 -3 11 -10 18
-16 17 -7 -2 -8 -1 -3 2 4 2 3 8 -4 12 -8 5 -7 9 5 13 9 4 13 3 10 -2 -3 -5
-1 -12 5 -16 9 -6 14 8 11 28 -1 5 3 6 9 2 7 -4 7 -12 0 -25 -16 -31 -13 -45
8 -29 9 7 14 9 10 5 -4 -5 -2 -16 5 -25 11 -14 10 -15 -7 -1 -18 14 -19 13
-13 -3 5 -12 3 -16 -5 -11 -7 4 -8 3 -4 -4 4 -7 1 -12 -6 -13 -10 0 -10 -2 0
-6 6 -2 10 -8 8 -12 -3 -4 1 -8 9 -8 10 0 12 4 5 12 -8 9 -6 14 5 19 9 3 13 2
10 -4 -9 -15 5 -12 22 5 8 9 13 25 10 35 -3 11 -1 17 4 14 5 -3 8 -17 7 -32
-1 -15 4 -38 11 -52 11 -23 11 -24 -3 -6 -9 11 -16 24 -16 29 0 4 -7 1 -16 -8
-14 -13 -14 -19 -4 -28 10 -9 11 -9 6 0 -3 6 -2 14 4 18 5 3 10 1 10 -5 0 -7
10 -20 23 -31 18 -15 19 -18 5 -19 -9 0 -19 4 -22 8 -6 11 -66 3 -66 -8 0 -5
-18 -6 -41 -3 -25 4 -44 2 -48 -5 -9 -15 -101 -33 -130 -25 -12 3 -32 1 -44
-5 -12 -5 -78 -18 -147 -27 -139 -19 -254 -39 -347 -61 -34 -7 -74 -14 -88
-14 -17 0 -25 -5 -25 -16 0 -15 9 -16 68 -12 l67 6 -69 -17 c-95 -24 -97 -40
-4 -34 202 12 982 3 996 -12 10 -9 11 -35 2 -40 -5 -3 -7 4 -5 15 2 11 0 20
-6 20 -5 0 -9 -9 -9 -20 0 -22 1 -22 -132 -25 -53 -1 -75 1 -72 9 2 6 -3 20
-12 31 -8 11 -12 13 -8 5 7 -13 5 -13 -8 -2 -14 11 -43 11 -122 -2 -11 -1 -20
-10 -22 -19 -1 -10 2 -15 7 -11 5 3 6 10 3 16 -4 7 -2 8 4 4 13 -8 5 -36 -12
-37 -6 -1 -25 -3 -43 -5 -26 -3 -33 1 -39 19 -5 12 -7 25 -6 30 3 9 -106 7
-138 -3 -24 -8 -23 -9 22 -14 15 -1 22 -23 9 -31 -6 -3 -11 -1 -11 5 0 7 -7 5
-16 -4 -10 -11 -35 -16 -72 -17 -31 0 -113 -3 -182 -5 -69 -3 -139 -3 -157 1
-65 12 -115 77 -218 283 -43 86 -93 195 -96 210 0 4 -5 15 -10 24 -5 10 -5 26
1 40 10 23 10 23 7 -3 -2 -14 1 -26 8 -26 26 0 1 67 -93 254 -101 201 -161
313 -167 313 -1 0 -5 -9 -8 -20 -3 -13 -1 -18 6 -13 8 4 8 2 0 -9 -7 -8 -11
-18 -8 -22 3 -3 0 -2 -6 3 -6 4 -11 16 -13 25 -1 9 -6 15 -12 14 -5 -2 -8 -7
-6 -11 1 -5 -2 -6 -7 -2 -6 3 -8 12 -5 20 7 17 -20 48 -31 37 -5 -4 -5 -1 -1
6 4 6 0 19 -8 28 -9 9 -13 20 -10 26 4 6 2 8 -3 5 -6 -4 -18 10 -27 31 -10 20
-22 46 -28 57 -45 79 -68 121 -68 130 0 6 5 3 10 -5 13 -21 12 -6 -1 24 -7 14
-16 23 -20 20 -7 -4 -39 85 -39 111 0 7 10 20 22 31 l21 19 -18 -27 c-11 -18
-14 -34 -10 -45 7 -15 9 -13 14 12 5 22 12 30 26 28 10 -1 35 7 54 16 26 13
82 22 196 30 88 7 171 14 185 15 66 7 80 6 80 -10z m1734 7 c3 -4 -6 -6 -19
-3 -14 2 -25 6 -25 8 0 8 39 4 44 -5z m305 -21 c142 -28 225 -70 468 -241 134
-94 434 -334 613 -490 25 -21 66 -56 92 -76 165 -133 246 -208 230 -214 -13
-5 -9 -8 15 -13 28 -6 185 -136 338 -278 17 -16 33 -28 37 -28 5 0 8 -6 8 -14
0 -13 -28 -23 -83 -31 -118 -15 -131 -16 -117 -6 8 6 27 11 42 11 36 0 44 16
13 24 -14 4 -25 11 -25 16 0 14 -116 12 -255 -5 -373 -45 -401 -47 -628 -40
-259 9 -263 9 -279 23 -7 5 -48 18 -90 28 -43 10 -78 22 -78 26 0 11 7 10 75
-8 33 -9 71 -18 85 -20 14 -3 41 -9 60 -14 38 -11 242 -2 235 10 -3 4 -22 11
-42 14 -21 4 -49 11 -63 16 -14 4 -88 23 -165 41 -77 17 -147 36 -155 41 -22
14 53 0 129 -23 34 -10 73 -21 85 -23 11 -3 55 -12 96 -21 41 -9 86 -19 100
-21 14 -3 41 -9 60 -14 19 -6 55 -9 80 -9 l45 1 -45 13 c-38 11 -146 35 -215
49 -76 16 -322 78 -333 85 -7 4 -15 24 -17 45 -9 72 -50 128 -123 172 -18 10
-32 21 -32 25 0 11 -48 28 -97 35 -44 5 -50 9 -68 47 -30 64 -124 153 -197
187 -35 16 -105 37 -156 47 l-93 18 7 40 c16 96 24 107 89 123 33 8 83 30 112
49 45 31 57 34 92 28 27 -4 41 -3 41 4 0 6 -18 11 -40 11 -22 0 -40 3 -40 7 0
4 9 25 19 47 41 85 33 145 -20 153 -13 2 -26 8 -30 14 -3 6 -9 10 -13 9 -7 -2
-101 32 -141 51 -11 6 -30 11 -42 12 -12 0 -19 5 -17 9 3 4 -1 8 -8 9 -58 4
-75 6 -86 13 -7 4 -15 1 -18 -8 -3 -9 -22 -18 -41 -22 -19 -4 -55 -21 -81 -38
-57 -39 -79 -48 -79 -33 0 7 -10 32 -21 56 -12 25 -22 47 -22 49 0 2 53 1 118
-2 86 -5 112 -4 100 4 -34 21 -18 26 65 22 185 -9 240 -8 245 7 3 8 0 11 -6 7
-6 -3 -13 -2 -17 4 -11 18 176 11 284 -10z m-909 -110 c13 -8 12 -10 -5 -10
-11 0 -26 9 -33 21 -12 18 -11 19 5 10 10 -6 25 -15 33 -21z m94 -78 c3 -5 -1
-9 -9 -9 -8 0 -12 4 -9 9 3 4 7 8 9 8 2 0 6 -4 9 -8z m-26 -70 c15 12 16 11 3
-4 -15 -20 -32 -15 -30 10 1 15 2 15 6 -1 4 -15 7 -16 21 -5z m-158 -31 c0 -4
-6 -8 -13 -8 -8 0 -14 6 -14 13 0 7 6 10 14 7 7 -3 13 -8 13 -12z m128 -9 c7
7 12 9 12 6 0 -3 -6 -11 -14 -17 -12 -10 -17 -8 -26 11 -10 20 -10 21 3 6 10
-13 16 -15 25 -6z m416 -209 c-10 -57 -28 -108 -37 -105 -4 1 -24 2 -45 2 -37
0 -37 0 -58 65 -11 36 -18 68 -15 70 2 3 40 5 83 5 l79 0 -7 -37z m-231 -124
c4 -3 1 -12 -8 -19 -13 -11 -14 -10 -9 5 5 12 4 16 -4 11 -6 -3 -14 -1 -18 5
-4 8 -3 9 4 5 7 -4 12 -2 12 5 0 7 3 8 8 3 4 -5 11 -11 15 -15z m-1628 -39 c3
-5 1 -10 -4 -10 -6 0 -11 5 -11 10 0 6 2 10 4 10 3 0 8 -4 11 -10z m1575 -14
c0 -2 -7 -7 -16 -10 -8 -3 -12 -2 -9 4 6 10 25 14 25 6z m103 -63 c-3 -7 -6
-13 -8 -13 -2 0 -5 6 -8 13 -3 8 1 14 8 14 7 0 11 -6 8 -14z m102 -15 c5 4 5
1 1 -6 -6 -10 -11 -10 -22 -1 -15 13 -17 9 -8 -15 5 -13 10 -13 27 -4 12 6 19
7 15 3 -4 -5 -2 -15 4 -24 10 -13 10 -14 -2 -3 -8 6 -18 12 -23 12 -4 0 -5 -6
-2 -12 4 -7 -3 -2 -14 11 -13 14 -21 18 -21 10 -1 -9 -4 -8 -11 4 -14 24 -32
12 -19 -13 7 -13 7 -21 0 -25 -6 -4 -10 -3 -9 2 3 19 -2 34 -9 29 -5 -3 -9 1
-9 9 0 8 4 12 8 9 4 -2 11 0 14 6 5 8 11 8 20 0 9 -8 14 -6 19 6 5 12 9 14 20
5 7 -6 17 -7 21 -3z m-1720 -28 c22 -43 18 -61 -5 -20 -11 19 -19 38 -20 43 0
15 10 6 25 -23z m1591 -8 c-17 -16 -18 -16 -5 5 7 12 15 20 18 17 3 -2 -3 -12
-13 -22z m-3911 -2 c141 -20 375 -91 375 -113 0 -10 -33 -1 -81 24 -94 47
-363 93 -407 70 -51 -27 -12 -46 49 -24 37 13 55 13 114 3 39 -7 87 -19 108
-26 20 -7 45 -10 54 -7 11 4 14 3 9 -5 -4 -7 -14 -12 -22 -12 -18 0 -48 -16
-95 -52 -20 -15 -40 -24 -44 -20 -5 4 -5 1 -1 -5 11 -19 25 -16 62 12 18 14
38 25 43 25 16 0 53 -22 68 -40 11 -13 12 -13 7 3 -4 10 -17 23 -30 28 -60 22
2 45 80 29 61 -13 66 -16 88 -58 19 -35 16 -106 -5 -119 -5 -3 -8 -2 -5 3 3 5
2 18 -2 29 -6 17 -9 14 -15 -17 -5 -25 -13 -38 -24 -39 -10 0 -11 -2 -3 -6 6
-2 10 -9 7 -14 -3 -5 -46 11 -94 36 -191 96 -395 231 -405 270 -6 23 2 34 13
17 6 -10 14 -9 37 3 34 18 30 17 119 5z m3913 -18 c15 11 15 11 6 -2 -6 -8
-10 -23 -9 -33 2 -9 -1 -15 -6 -11 -5 3 -7 9 -4 14 3 5 0 12 -6 16 -8 5 -10
-1 -6 -22 5 -27 4 -27 -9 -9 -10 14 -14 15 -14 4 0 -8 6 -21 13 -28 10 -11 9
-12 -1 -6 -9 5 -12 2 -10 -8 2 -9 -1 -17 -6 -19 -15 -5 -15 45 0 69 8 12 14
30 14 40 1 17 1 17 11 0 9 -15 13 -16 27 -5z m-3612 -7 c15 -11 16 -14 3 -15
-8 0 -24 7 -35 15 -15 11 -16 14 -3 15 8 0 24 -7 35 -15z m3705 -2 c13 -16 12
-17 -3 -4 -10 7 -18 15 -18 17 0 8 8 3 21 -13z m-3636 -31 c-3 -3 -11 0 -18 7
-9 10 -8 11 6 5 10 -3 15 -9 12 -12z m315 -46 c0 -3 -4 -8 -10 -11 -5 -3 -10
-1 -10 4 0 6 5 11 10 11 6 0 10 -2 10 -4z m3888 -1 c-3 -3 -17 -8 -31 -10 -36
-7 -78 -31 -69 -40 4 -5 1 -5 -5 -1 -7 4 -19 4 -25 -1 -15 -9 -34 -14 -65 -17
-12 -1 -30 -9 -39 -17 -16 -12 -17 -12 -10 1 4 9 2 8 -7 -2 -8 -10 -24 -19
-35 -21 -12 -2 -25 -7 -29 -12 -5 -4 -2 -5 5 -1 6 4 12 2 12 -3 0 -6 -7 -11
-16 -11 -16 0 -76 -38 -82 -52 -2 -4 -10 -4 -18 -1 -13 5 -13 8 2 24 9 10 20
16 24 14 4 -3 11 3 14 12 6 15 8 15 16 3 8 -13 10 -13 10 0 0 15 27 44 43 47
4 1 25 12 45 25 59 37 152 67 211 67 30 1 52 -1 49 -4z m-4098 -47 c0 -11 -12
-10 -30 2 -12 7 -10 9 8 7 12 0 22 -5 22 -9z m1964 -75 c9 -18 14 -33 12 -33
-6 0 -36 55 -36 66 0 11 5 3 24 -33z m2265 4 c53 -26 79 -59 87 -109 l6 -36
-88 22 -89 22 -6 60 c-3 32 -4 63 -1 67 5 10 35 1 91 -26z m-5017 -19 c-10
-10 -10 -8 -2 37 1 6 4 2 7 -9 3 -10 0 -23 -5 -28z m759 12 c10 -6 19 -18 19
-27 0 -13 -3 -14 -12 -5 -7 7 -16 12 -21 12 -5 0 -1 -7 8 -16 13 -13 13 -19 3
-32 -8 -9 -8 -13 -2 -9 9 5 10 -3 3 -31 -5 -20 -9 -40 -9 -44 0 -9 -50 -7 -50
1 0 15 34 161 37 161 3 0 13 -5 24 -10z m-744 -39 c-3 -11 1 -22 8 -25 14 -5
14 -30 0 -43 -4 -4 -6 2 -3 14 4 15 2 20 -7 17 -14 -6 -14 -21 -1 -43 7 -10 5
-12 -4 -6 -9 5 -11 2 -7 -11 4 -11 0 -30 -8 -44 -8 -14 -14 -19 -15 -12 0 7
-4 10 -10 7 -5 -3 -8 0 -5 7 2 7 6 35 9 61 4 44 16 79 16 47 0 -7 3 -10 8 -6
7 8 8 13 11 41 0 8 4 15 7 15 4 0 4 -9 1 -19z m992 -26 c54 -25 101 -45 104
-45 16 0 139 -61 134 -67 -4 -3 -12 -1 -19 4 -7 6 -58 29 -113 51 -208 84
-246 102 -216 102 6 0 56 -20 110 -45z m3284 22 c4 3 7 4 7 1 0 -3 -8 -12 -17
-19 -10 -7 -15 -9 -11 -5 4 5 2 16 -5 25 -10 14 -10 14 4 4 9 -7 19 -10 22 -6z
m156 -20 c8 -11 6 -18 -11 -33 -13 -10 -18 -12 -12 -4 6 8 10 23 9 33 -4 21
-1 21 14 4z m-427 -16 c-5 -13 -3 -14 9 -4 13 10 16 10 16 -2 0 -7 -5 -13 -11
-12 -6 1 -10 -3 -9 -8 1 -6 -9 -11 -23 -11 -13 0 -24 4 -24 9 0 5 7 7 15 3 8
-3 15 -1 15 4 0 6 -7 10 -16 10 -13 0 -14 3 -5 13 15 19 40 17 33 -2z m159 0
c-6 -10 -7 -22 -3 -26 4 -5 1 -5 -6 -1 -9 5 -9 12 -2 27 6 10 13 19 16 19 2 0
0 -8 -5 -19z m-88 -16 c2 -14 2 -23 -1 -20 -3 2 -10 0 -17 -5 -8 -7 -12 -5
-12 5 0 8 4 12 9 9 4 -3 8 4 8 15 0 29 7 26 13 -4z m-3418 -25 c0 -16 -3 -30
-7 -30 -5 0 -12 0 -18 0 -15 0 -12 21 7 42 9 10 17 18 17 18 1 0 2 -13 1 -30z
m3466 -15 c10 -4 19 -10 19 -15 0 -7 -35 -20 -45 -17 -2 1 -11 -7 -20 -18 -16
-19 -16 -19 -7 0 8 14 6 23 -6 33 -10 8 -5 7 11 -2 15 -9 27 -12 27 -7 0 6 -8
15 -17 20 -10 6 -12 11 -5 11 6 0 13 8 13 18 1 16 2 16 6 0 2 -9 13 -20 24
-23z m914 -17 c7 -7 4 -9 -10 -5 -91 23 -115 31 -115 37 0 10 112 -18 125 -32z
m-1035 -13 c0 -5 -5 -3 -10 5 -5 8 -10 20 -10 25 0 6 5 3 10 -5 5 -8 10 -19
10 -25z m169 18 c-3 -20 2 -26 11 -13 8 12 9 10 7 -7 -2 -12 -7 -26 -11 -30
-4 -5 -6 -3 -4 4 2 6 -1 10 -7 10 -5 -1 -10 -9 -10 -17 0 -8 -6 -14 -12 -12
-12 2 -17 -9 -14 -33 0 -6 -17 -9 -42 -7 -37 3 -42 6 -42 29 0 19 2 21 9 10 8
-13 12 -12 28 7 10 11 18 17 17 11 -3 -26 2 -46 11 -40 6 3 8 17 6 30 -3 14 0
28 6 31 6 4 8 2 5 -3 -4 -6 1 -17 10 -24 15 -12 16 -12 11 3 -4 9 -4 19 0 23
4 4 8 11 8 16 2 16 4 19 9 19 3 0 4 -3 4 -7z m183 -5 c-19 -19 -14 -32 6 -17
15 13 16 12 4 -3 -8 -10 -19 -16 -25 -15 -7 1 -11 -6 -11 -15 1 -10 -3 -15 -8
-12 -6 4 -13 2 -17 -3 -9 -14 -141 -27 -141 -14 0 5 5 13 12 17 7 4 8 3 4 -4
-5 -8 0 -12 13 -12 18 0 20 4 15 38 -3 20 -3 34 0 31 3 -3 7 -16 9 -30 3 -19
10 -24 35 -25 17 -1 29 3 26 7 -6 10 33 48 61 59 28 12 31 12 17 -2z m-303
-12 c9 -11 9 -16 -1 -22 -7 -4 -10 -4 -6 1 4 4 3 14 -3 22 -6 7 -9 13 -6 13 2
0 10 -6 16 -14z m201 -1 c-7 -8 -10 -22 -6 -30 3 -9 2 -13 -4 -10 -14 8 -13
28 2 43 17 17 23 15 8 -3z m830 5 c8 -5 11 -10 5 -10 -5 0 -17 5 -25 10 -8 5
-10 10 -5 10 6 0 17 -5 25 -10z m-5145 -185 c3 -87 2 -155 -2 -152 -3 4 -8 77
-10 164 -3 87 -2 155 2 152 3 -4 8 -78 10 -164z m1377 116 c-5 -3 -12 -13 -15
-21 -3 -9 -6 -4 -6 13 -1 15 -5 27 -9 27 -5 0 -17 7 -28 16 -10 8 0 5 24 -7
23 -13 38 -25 34 -28z m645 43 c-3 -3 -12 -4 -19 -1 -8 3 -5 6 6 6 11 1 17 -2
13 -5z m-63 -22 c3 -4 -8 -7 -25 -6 -20 1 -27 -2 -22 -9 9 -15 14 -41 6 -33
-3 3 -12 -2 -20 -12 -11 -15 -12 -15 -7 -1 3 10 0 20 -7 25 -8 4 -10 3 -5 -4
4 -7 1 -12 -7 -12 -8 0 -17 -7 -21 -15 -3 -9 -18 -15 -36 -15 -16 0 -30 -4
-30 -10 0 -5 -8 -10 -18 -10 -10 0 -22 -3 -26 -7 -4 -5 -13 -8 -19 -8 -7 -1
-10 -7 -9 -15 2 -8 0 -12 -3 -8 -4 4 -17 1 -29 -7 -28 -20 -61 -19 -94 4 -15
10 -57 35 -94 55 -38 20 -68 39 -68 41 0 6 53 -15 60 -23 3 -4 30 -19 61 -34
l57 -27 50 49 c38 36 67 54 114 69 63 20 182 28 192 13z m3071 -7 c27 -9 60
-17 74 -20 26 -4 37 -12 30 -20 -3 -2 -37 5 -75 16 -38 11 -75 21 -81 22 -14
0 -18 17 -5 17 4 0 29 -7 57 -15z m-150 -45 c7 -12 -48 -12 -85 0 -20 6 -14 8
27 9 28 1 55 -3 58 -9z m140 -19 c-6 -6 -25 -6 -45 -1 l-35 8 45 1 c27 1 40
-3 35 -8z m-1032 -18 c-7 -2 -21 -2 -30 0 -10 3 -4 5 12 5 17 0 24 -2 18 -5z
m296 -29 c2 -2 -12 -4 -32 -4 -20 0 -37 4 -37 10 0 8 58 3 69 -6z m754 -1
c-18 -2 -48 -2 -65 0 -18 2 -4 4 32 4 36 0 50 -2 33 -4z m-1340 -30 c-7 -2
-21 -2 -30 0 -10 3 -4 5 12 5 17 0 24 -2 18 -5z m2531 1 c17 -6 22 -24 8 -24
-5 0 -17 7 -28 15 -19 15 -8 20 20 9z m283 -10 c-10 -11 -252 -42 -260 -34 -5
4 28 10 71 14 44 4 93 11 109 16 33 10 89 13 80 4z m-2040 -28 c13 -13 -10
-18 -104 -22 -54 -2 -147 -8 -206 -12 -60 -4 -110 -5 -113 -1 -4 7 56 19 102
19 16 0 34 4 40 9 5 5 23 11 39 13 45 6 236 1 242 -6z m1002 -2 c2 -2 -21 -4
-52 -4 -31 0 -57 4 -57 10 0 8 99 3 109 -6z m-1619 -24 c0 -5 -13 -10 -30 -10
-16 0 -30 5 -30 10 0 6 14 10 30 10 17 0 30 -4 30 -10z m-135 -10 c-16 -4 -50
-8 -75 -8 -40 0 -42 1 -15 8 17 4 50 8 75 8 40 0 42 -1 15 -8z m1883 -37 c-16
-2 -40 -2 -55 0 -16 2 -3 4 27 4 30 0 43 -2 28 -4z m-1368 -23 c0 -5 -2 -10
-4 -10 -3 0 -8 5 -11 10 -3 6 -1 10 4 10 6 0 11 -4 11 -10z m-3623 -37 c-3
-10 -5 -4 -5 12 0 17 2 24 5 18 2 -7 2 -21 0 -30z m128 28 c3 -5 2 -12 -3 -15
-5 -3 -9 1 -9 9 0 17 3 19 12 6z m3585 5 c0 -2 -18 -6 -40 -8 -22 -2 -40 0
-40 4 0 5 18 8 40 8 22 0 40 -2 40 -4z m17 -18 c-3 -8 -6 -5 -6 6 -1 11 2 17
5 13 3 -3 4 -12 1 -19z m-4340 -20 c2 -17 0 -19 -7 -8 -5 8 -6 18 -4 22 8 12
10 10 11 -14z m3723 -22 c-1 -6 -6 -1 -13 12 -7 12 -17 19 -22 15 -4 -4 -5 -2
0 6 7 12 10 11 22 -4 7 -11 13 -24 13 -29z m-3460 3 c0 -6 -4 -7 -10 -4 -5 3
-10 11 -10 16 0 6 5 7 10 4 6 -3 10 -11 10 -16z m613 -132 c68 -45 71 -59 4
-22 -25 14 -55 28 -66 30 -25 5 -68 34 -95 64 -15 16 -21 18 -28 9 -6 -10 -8
-9 -8 3 0 9 3 18 6 22 6 6 98 -45 187 -106z m2480 86 c-7 -2 -19 -2 -25 0 -7
3 -2 5 12 5 14 0 19 -2 13 -5z m-2771 -85 c3 -29 9 -61 13 -72 6 -14 4 -17 -5
-14 -20 6 -44 80 -36 111 10 43 23 31 28 -25z m1651 4 c-3 -14 -12 -17 -34
-14 -48 7 -34 23 28 31 6 0 9 -7 6 -17z m-1230 -83 l22 -21 -32 16 c-34 17
-41 26 -23 26 6 0 21 -10 33 -21z m-749 -198 c-3 -3 -15 6 -27 18 l-22 24 27
-19 c14 -10 24 -21 22 -23z m211 -81 c3 -5 -1 -10 -9 -10 -8 0 -18 5 -21 10
-3 6 1 10 9 10 8 0 18 -4 21 -10z m-268 -142 c28 -31 40 -56 68 -141 24 -73
45 -173 45 -211 -1 -36 -16 3 -31 77 -7 37 -16 67 -20 67 -16 0 -17 -48 0 -97
19 -56 11 -72 -13 -26 l-14 28 -7 -37 c-4 -21 -5 -45 -1 -53 7 -20 43 -19 55
2 5 10 11 16 13 13 8 -9 -4 -100 -11 -95 -11 6 -6 -26 9 -57 12 -25 10 -29
-16 -52 -35 -31 -44 -32 -44 -7 0 19 -43 55 -54 44 -12 -13 -5 -31 12 -29 10
0 16 -6 16 -16 -1 -10 4 -18 11 -18 18 0 25 -48 8 -54 -8 -3 -12 -10 -8 -15 5
-10 -33 -27 -41 -18 -2 2 -7 28 -10 58 -7 71 -24 105 -52 102 -21 -3 -22 1
-22 80 0 45 -3 93 -5 107 l-6 25 12 -23 c16 -30 45 -24 42 8 -3 35 26 100 42
94 15 -6 22 42 15 101 l-5 40 -19 -28 c-10 -15 -20 -50 -22 -79 -4 -61 -32
-100 -58 -79 -27 22 -6 143 39 232 12 23 22 29 47 29 35 0 31 10 -17 34 l-30
16 26 0 c14 0 35 -10 46 -22z m168 2 c8 -13 -5 -13 -25 0 -13 8 -13 10 2 10 9
0 20 -4 23 -10z m163 -8 c29 -5 64 -7 77 -4 16 3 25 0 25 -8 0 -10 -15 -11
-57 -6 -32 3 -88 9 -125 13 -37 3 -65 10 -62 14 5 9 58 6 142 -9z m1462 -22
c0 -5 -2 -10 -4 -10 -3 0 -8 5 -11 10 -3 6 -1 10 4 10 6 0 11 -4 11 -10z m247
-12 c-3 -8 -6 -5 -6 6 -1 11 2 17 5 13 3 -3 4 -12 1 -19z m-1940 -10 c-3 -8
-6 -5 -6 6 -1 11 2 17 5 13 3 -3 4 -12 1 -19z m503 12 c0 -5 -7 -7 -15 -4 -8
4 -15 1 -15 -4 0 -6 9 -14 20 -17 11 -3 20 -11 20 -16 0 -11 -11 -11 -30 1 -9
5 -19 5 -28 -2 -9 -8 -16 -8 -25 1 -9 9 -9 14 3 22 11 7 5 9 -25 8 -55 -1 -62
0 -46 10 19 12 141 13 141 1z m85 -15 l50 -15 -44 5 c-24 3 -51 10 -60 15 -23
14 -3 12 54 -5z m35 -92 c0 -2 -9 -2 -19 2 -11 3 -29 8 -42 10 -27 5 -33 11
-25 23 5 9 86 -24 86 -35z m12 -17 c26 -4 50 -11 52 -15 6 -9 -97 4 -113 14
-6 3 -11 11 -11 17 0 7 4 7 13 0 6 -5 33 -13 59 -16z m-512 -37 c95 -46 340
-205 340 -221 0 -16 -22 -4 -117 64 -115 82 -130 91 -240 144 -51 24 -93 46
-93 49 0 12 32 2 110 -36z m575 -14 c51 -31 24 -32 -35 0 -30 16 -38 24 -25
24 11 1 38 -10 60 -24z m61 4 c9 -15 -23 -10 -35 5 -10 12 -8 13 9 9 11 -3 23
-9 26 -14z m39 -59 c3 -6 -1 -7 -9 -4 -18 7 -21 14 -7 14 6 0 13 -4 16 -10z
m6799 0 c41 15 77 12 114 -10 32 -19 58 -62 42 -68 -5 -2 -5 -17 -2 -35 3 -18
6 -48 6 -67 1 -33 -1 -35 -35 -38 -28 -2 -38 -8 -43 -25 -10 -38 -8 -51 7 -39
10 9 19 7 35 -4 21 -15 22 -14 22 15 0 32 15 49 24 29 3 -9 5 -8 3 2 -1 8 3
15 8 15 6 0 10 -26 10 -57 0 -44 3 -54 13 -46 9 8 12 5 12 -11 0 -11 -4 -21
-10 -21 -5 0 -9 -10 -7 -22 2 -19 -8 -26 -68 -46 -38 -13 -83 -26 -100 -28
-16 -3 -58 -12 -93 -20 -101 -23 -99 -23 -107 50 -9 77 8 243 32 315 21 66 76
129 97 112 10 -8 21 -8 40 -1z m-7399 -20 c3 -6 -1 -7 -9 -4 -18 7 -21 14 -7
14 6 0 13 -4 16 -10z m695 -30 c0 -5 -8 -7 -17 -5 -10 2 -22 4 -26 4 -5 1 -6
5 -3 10 7 11 46 3 46 -9z m6920 -185 c0 -19 -2 -35 -4 -35 -2 0 -6 16 -8 35
-2 19 0 35 4 35 4 0 8 -16 8 -35z m-549 8 c10 -11 10 -14 2 -9 -9 5 -13 1 -13
-10 0 -15 -2 -16 -12 -5 -11 11 -10 14 0 18 6 3 10 9 6 14 -9 15 3 10 17 -8z
m-315 -57 c-1 -14 4 -20 14 -18 11 3 9 -3 -5 -20 -11 -13 -21 -25 -23 -28 -2
-2 -1 8 2 23 3 15 1 25 -3 22 -12 -7 -34 22 -27 34 12 18 42 8 42 -13z m-61 6
c-2 -3 7 -13 20 -24 14 -11 22 -24 19 -30 -4 -6 -12 -1 -20 13 -16 29 -18 21
-4 -18 10 -28 9 -28 -6 -5 -9 12 -21 22 -26 22 -5 0 -4 -10 2 -22 10 -21 10
-21 -3 -5 -15 18 -33 24 -22 8 3 -5 0 -13 -6 -17 -7 -4 -9 -3 -6 3 4 6 0 13
-8 16 -10 4 -12 1 -9 -11 5 -14 4 -14 -6 1 -14 22 -10 27 19 30 13 1 20 6 17
14 -3 7 0 12 7 10 7 -1 11 3 10 9 -1 6 5 11 13 11 8 0 12 -2 9 -5z m205 -16
c-15 -15 -44 -17 -31 -2 6 7 18 13 26 13 11 0 12 -4 5 -11z m-323 -21 c0 -8
-4 -12 -9 -9 -5 3 -6 10 -3 15 9 13 12 11 12 -6z m-417 -35 c0 -48 -3 -61 -13
-51 -7 7 -15 7 -22 1 -9 -7 -16 -6 -24 4 -9 11 -9 16 0 21 6 4 15 1 20 -6 7
-12 9 -11 9 1 0 13 2 13 9 1 7 -10 9 -1 7 28 -2 23 1 38 6 33 4 -4 8 -19 8
-32z m444 15 c3 -8 1 -15 -4 -15 -6 0 -10 7 -10 15 0 8 2 15 4 15 2 0 6 -7 10
-15z m-35 -11 c4 3 8 -1 8 -9 0 -11 -4 -12 -14 -4 -7 6 -13 17 -12 23 0 7 2 6
6 -2 2 -6 8 -10 12 -8z m471 -3 c0 12 2 12 10 -1 8 -12 10 -12 10 -1 0 8 3 11
6 8 12 -12 -15 -34 -38 -32 -13 1 -28 -2 -34 -6 -7 -5 -11 -3 -11 6 0 7 3 14
6 13 22 -2 30 4 25 20 -5 14 -3 14 10 -2 12 -15 16 -16 16 -5z m-543 -4 c0 -8
-6 -14 -14 -14 -9 0 -10 4 -2 14 6 7 12 13 14 13 1 0 2 -6 2 -13z m46 -2 c4
-8 3 -16 -1 -19 -4 -3 -9 4 -9 15 -2 23 3 25 10 4z m-6875 -105 c12 -25 37
-56 57 -70 34 -24 42 -49 19 -57 -6 -2 -24 7 -40 20 -27 23 -38 48 -75 171
-14 44 -9 56 5 16 7 -19 23 -55 34 -80z m6467 100 c-3 -5 -12 -7 -20 -3 -21 7
-19 13 6 13 11 0 18 -4 14 -10z m805 4 c0 -8 -19 -13 -24 -6 -3 5 1 9 9 9 8 0
15 -2 15 -3z m24 -25 c-3 -5 -10 -7 -15 -4 -5 4 -9 1 -9 -6 0 -7 -3 -9 -6 -6
-9 9 16 38 27 31 5 -3 7 -10 3 -15z m-48 -1 c4 -7 4 -10 -1 -6 -4 4 -16 -3
-26 -15 -16 -19 -18 -19 -12 -3 5 14 3 17 -7 11 -9 -5 -11 -4 -6 4 4 6 11 9
16 6 5 -3 11 -1 15 5 8 13 12 13 21 -2z m-57 -43 c0 -5 -4 -3 -9 5 -5 8 -9 22
-9 30 0 16 17 -16 18 -35z m-6484 4 c25 -47 83 -107 160 -163 122 -90 532
-369 745 -506 113 -73 225 -147 250 -164 25 -18 54 -36 65 -40 12 -5 15 -10 8
-13 -12 -4 -235 136 -558 350 -421 280 -601 410 -638 459 -24 32 -57 91 -57
103 0 13 11 2 25 -26z m5278 11 c-3 -11 -9 -17 -15 -14 -5 3 -4 12 3 20 16 19
18 18 12 -6z m1180 -10 c3 -11 2 -18 -3 -15 -4 3 -10 14 -13 25 -3 11 -2 18 3
15 4 -3 10 -14 13 -25z m-28 0 c-3 -5 -12 -10 -18 -10 -7 0 -6 4 3 10 19 12
23 12 15 0z m-495 -67 c49 -65 50 -68 29 -73 -16 -4 -27 -20 -40 -55 -24 -69
-23 -86 2 -55 18 22 19 22 9 3 -11 -23 -48 -49 -57 -40 -2 3 4 25 15 50 34 77
35 98 7 132 l-24 30 -1 -37 c0 -40 -2 -42 -42 -52 -26 -6 -28 -4 -28 27 0 19
3 55 6 80 6 40 10 46 33 50 14 2 29 5 33 6 4 0 30 -29 58 -66z m-1742 40 c13
-5 -12 -8 -66 -9 -49 0 -115 -8 -151 -17 -73 -20 -88 -16 -39 9 58 31 193 40
256 17z m915 -63 c10 -13 10 -13 -4 -3 -9 7 -18 11 -21 8 -2 -3 -2 10 1 28 5
29 6 30 9 7 2 -14 9 -32 15 -40z m-3703 -2 c0 -12 -6 -10 -40 10 -16 10 -27
22 -24 25 8 8 64 -24 64 -35z m2852 18 c20 -9 39 -20 42 -25 4 -5 19 -12 35
-16 56 -12 129 -103 155 -192 17 -61 13 -69 -9 -16 -25 58 -28 31 -6 -45 12
-38 24 -90 27 -116 6 -38 4 -46 -9 -46 -10 0 -14 -6 -11 -15 4 -8 4 -15 1 -15
-3 0 -40 -6 -83 -14 -44 -8 -104 -18 -134 -21 -30 -4 -66 -8 -80 -10 -164 -24
-475 -41 -484 -26 -9 13 -9 179 -1 241 14 112 54 183 138 251 59 47 102 68
167 80 64 12 209 3 252 -15z m2998 19 c0 -7 -110 -61 -140 -69 -14 -4 -3 5 24
19 26 14 58 32 69 40 21 15 47 20 47 10z m-7852 -24 c3 -8 -1 -12 -9 -9 -7 2
-15 10 -17 17 -3 8 1 12 9 9 7 -2 15 -10 17 -17z m2502 15 c0 -2 -7 -7 -16
-10 -8 -3 -12 -2 -9 4 6 10 25 14 25 6z m1916 -71 c-30 -31 -63 -69 -73 -85
-15 -26 -33 -40 -33 -25 0 14 61 97 86 117 27 21 64 46 72 47 2 1 -22 -24 -52
-54z m-1801 36 c3 -5 2 -12 -3 -15 -5 -3 -9 1 -9 9 0 17 3 19 12 6z m2569 -26
c-4 -8 -11 -15 -16 -15 -6 0 -5 6 2 15 7 8 14 15 16 15 2 0 1 -7 -2 -15z
m-1689 -75 c1 -27 -1 -47 -4 -44 -3 3 -6 27 -6 54 0 27 2 47 5 44 3 -3 5 -28
5 -54z m4152 54 c-3 -3 -12 -4 -19 -1 -8 3 -5 6 6 6 11 1 17 -2 13 -5z m-5032
-42 c3 -7 0 -10 -5 -7 -6 3 -10 2 -10 -3 0 -5 -7 -9 -15 -9 -8 0 -15 4 -15 9
0 4 -7 8 -16 8 -8 0 -13 4 -9 10 8 13 64 7 70 -8z m1625 12 c0 -8 -19 -13 -24
-6 -3 5 1 9 9 9 8 0 15 -2 15 -3z m-1583 -18 c0 -8 -6 -12 -15 -9 -11 5 -11 7
0 14 7 5 13 9 14 9 0 0 1 -6 1 -14z m1166 7 c-7 -2 -13 -9 -13 -14 0 -6 4 -8
8 -5 5 3 9 -2 9 -10 0 -13 -2 -13 -15 0 -15 15 -9 37 11 35 9 0 9 -2 0 -6z
m2657 -36 c0 -5 -4 -6 -9 -3 -5 4 -7 -3 -4 -14 8 -32 -3 -23 -25 19 l-21 39
30 -16 c16 -9 29 -21 29 -25z m985 16 c4 -13 3 -14 -10 -3 -8 7 -24 10 -35 7
-21 -6 -28 9 -7 16 19 6 45 -4 52 -20z m-4793 -15 c-8 -8 -9 -4 -5 13 4 13 8
18 11 10 2 -7 -1 -18 -6 -23z m4714 14 c-4 -7 -92 -38 -121 -42 -3 -1 -20 -7
-39 -15 -18 -8 -36 -11 -40 -8 -3 4 -6 1 -6 -5 0 -6 -7 -9 -17 -5 -11 4 -14 3
-9 -5 5 -8 2 -10 -9 -6 -9 4 -35 1 -58 -5 -23 -6 -55 -13 -72 -15 -16 -2 -37
-6 -45 -9 -51 -19 -142 -47 -165 -51 -14 -3 -41 -9 -58 -15 -18 -5 -40 -9 -49
-8 -28 1 -21 17 7 17 14 0 51 9 82 19 78 26 209 64 313 91 47 12 119 32 160
45 76 24 135 32 126 17z m163 -109 c13 -13 19 -23 13 -23 -10 0 -72 71 -86
100 -5 8 5 -1 20 -20 16 -19 40 -45 53 -57z m-3694 55 c5 4 5 2 1 -5 -4 -7 2
-16 13 -22 13 -7 17 -17 14 -32 -4 -13 -8 -17 -13 -9 -4 6 -11 10 -15 8 -4 -1
-14 7 -23 20 -14 21 -13 22 4 16 18 -7 18 -6 -1 17 -11 13 -13 18 -4 11 9 -6
20 -8 24 -4z m55 -33 c0 -8 -2 -15 -4 -15 -2 0 -6 7 -10 15 -3 8 -1 15 4 15 6
0 10 -7 10 -15z m-1074 -11 c-1 -8 -6 -17 -12 -21 -5 -4 -6 -4 -2 1 4 5 3 14
-2 21 -7 8 -5 12 4 12 8 0 13 -6 12 -13z m53 -26 c5 -13 5 -28 0 -34 -6 -8 -4
-14 7 -18 11 -4 18 1 22 16 l6 23 6 -24 c4 -18 13 -25 33 -25 15 -1 27 2 27 7
0 5 10 5 23 1 12 -4 27 -7 34 -7 7 0 10 -4 7 -9 -3 -5 -10 -5 -16 -2 -6 4 -8
2 -5 -3 4 -6 0 -16 -8 -23 -8 -7 -15 -21 -15 -32 0 -10 -4 -16 -10 -13 -5 3
-10 -3 -10 -14 0 -28 -17 -35 -30 -12 -7 14 -7 22 2 27 6 4 8 3 5 -2 -3 -6 -1
-16 4 -24 6 -11 8 -6 7 18 -1 19 -7 36 -12 39 -5 3 -6 1 -3 -4 4 -6 0 -13 -8
-16 -10 -4 -12 -1 -8 10 5 12 3 14 -7 8 -10 -6 -12 -4 -6 11 6 15 4 16 -5 7
-9 -9 -15 -9 -25 2 -8 7 -14 18 -14 23 0 6 -6 12 -12 15 -10 3 -10 7 0 19 10
12 9 18 -3 28 -8 7 -12 16 -9 21 8 14 14 11 23 -13z m318 -2 c-1 -6 4 -10 11
-8 8 1 11 -2 7 -8 -5 -8 -12 -7 -23 2 -13 11 -15 10 -10 -10 4 -12 2 -20 -3
-16 -5 3 -9 -1 -10 -8 0 -10 -2 -10 -6 0 -2 6 -9 9 -14 6 -6 -3 -5 -11 2 -20
6 -8 8 -14 5 -14 -4 0 -2 -10 5 -21 7 -14 7 -19 0 -15 -5 4 -15 -2 -20 -13 -6
-10 -18 -21 -28 -25 -16 -5 -17 -5 -2 7 16 12 18 51 4 79 -3 7 0 5 8 -4 8 -10
17 -15 20 -11 4 3 2 12 -4 20 -6 7 -8 13 -4 13 4 0 1 8 -6 18 -13 16 -13 16 5
2 18 -14 19 -13 13 5 -7 20 -7 20 8 1 15 -20 15 -20 16 0 1 10 1 22 1 25 -1 3
5 6 13 6 8 0 13 -5 12 -11z m24 -39 c-6 -8 -7 -18 -3 -22 4 -5 1 -5 -6 -1 -10
6 -10 11 -1 22 6 8 14 14 16 14 3 0 0 -6 -6 -13z m4208 -45 c-5 -15 -12 -35
-15 -44 -3 -9 -26 -26 -50 -37 -40 -19 -178 -61 -193 -59 -3 0 -8 -1 -11 -2
-10 -3 -45 -11 -57 -12 -7 -1 -13 -4 -13 -8 0 -4 -6 -7 -12 -7 -27 -1 -154
-36 -167 -47 -12 -9 -13 -8 -7 4 4 8 0 6 -10 -5 -14 -17 -16 -17 -11 -2 9 24
-7 21 -27 -5 -9 -13 -14 -17 -11 -10 4 8 -3 12 -22 11 -24 0 -25 -2 -8 -8 19
-8 19 -8 -2 -15 -13 -4 -28 -4 -34 0 -7 4 -9 3 -6 -3 9 -15 -29 -23 -44 -9 -9
8 -10 8 -5 -1 4 -7 -11 -17 -41 -27 -57 -20 -107 -21 -98 -3 4 6 0 4 -8 -6
-12 -14 -20 -16 -41 -7 -20 7 -28 7 -32 -3 -2 -7 -13 -13 -24 -14 -50 -4 3 30
67 43 18 4 31 9 29 13 -3 4 3 7 12 8 24 1 76 13 81 18 2 2 12 0 22 -6 13 -7
19 -6 19 1 0 6 5 8 10 5 6 -3 10 -1 10 6 0 7 11 10 30 7 17 -3 30 -1 30 3 0 6
49 23 57 20 2 -1 27 8 55 20 80 31 107 38 113 30 6 -11 46 -7 72 7 12 6 38 15
59 18 20 3 49 11 63 17 14 5 28 11 31 12 90 22 145 62 162 116 10 36 13 39 24
24 8 -11 9 -25 3 -43z m-3950 6 c-5 -10 -11 -18 -12 -18 -2 0 -3 8 -3 18 0 10
6 19 13 19 8 0 9 -6 2 -19z m3164 5 c-7 -2 -19 -2 -25 0 -7 3 -2 5 12 5 14 0
19 -2 13 -5z m-3535 -28 c0 -27 -13 -41 -23 -26 -4 8 14 51 21 51 1 0 2 -11 2
-25z m-61 -15 c-1 -10 -5 -17 -9 -14 -4 3 -4 12 -1 21 5 11 3 14 -6 9 -7 -5
-11 -17 -8 -27 3 -11 1 -17 -4 -13 -12 7 -11 28 3 42 15 15 27 7 25 -18z m27
0 c-1 -38 -9 -47 -12 -14 -2 22 4 44 11 44 1 0 2 -14 1 -30z m1192 14 c-3 -9
-6 -43 -6 -75 0 -38 -4 -58 -10 -54 -20 12 -9 145 12 145 6 0 7 -7 4 -16z
m2220 -6 c4 -7 3 -8 -4 -4 -7 4 -12 3 -12 -2 0 -9 -109 -28 -210 -36 -25 -2
-56 -8 -70 -14 -14 -5 -86 -19 -160 -31 -74 -12 -174 -28 -221 -36 -124 -21
-239 -30 -357 -28 -56 1 -100 -1 -98 -6 3 -4 -1 -8 -9 -8 -21 0 -19 15 3 21 9
2 53 7 97 11 156 12 329 29 405 40 19 2 55 7 80 10 25 3 61 10 80 15 19 5 58
12 85 15 28 3 64 9 80 15 17 5 59 12 95 15 124 12 145 15 175 24 17 5 31 10
32 10 1 1 5 -4 9 -11z m-3009 -43 c0 -8 -4 -12 -9 -9 -5 3 -6 10 -3 15 9 13
12 11 12 -6z m-229 -110 c115 -19 132 -23 132 -36 0 -6 -4 -8 -8 -5 -7 4 -36
9 -132 21 -19 2 -44 6 -55 9 -11 2 -42 5 -70 6 -38 1 -45 4 -30 10 29 13 54
12 163 -5z m2072 -9 c0 -2 -9 -6 -20 -9 -11 -3 -18 -1 -14 4 5 9 34 13 34 5z
m-1886 -35 c3 -4 -6 -6 -19 -3 -14 2 -25 6 -25 8 0 8 39 4 44 -5z m-1399 -130
c-12 -11 -118 77 -109 91 3 4 29 -13 59 -39 30 -26 52 -49 50 -52z m2685 59
c0 -5 -5 -10 -11 -10 -5 0 -7 5 -4 10 3 6 8 10 11 10 2 0 4 -4 4 -10z m53 3
c-7 -2 -21 -2 -30 0 -10 3 -4 5 12 5 17 0 24 -2 18 -5z m-123 -13 c-58 -10
-337 -24 -329 -17 3 4 66 9 140 13 73 4 135 7 136 8 2 1 24 3 50 3 l48 1 -45
-8z m1774 -16 c3 -8 2 -12 -4 -9 -6 3 -10 10 -10 16 0 14 7 11 14 -7z m-114
-24 c0 -5 -5 -10 -11 -10 -5 0 -7 5 -4 10 3 6 8 10 11 10 2 0 4 -4 4 -10z
m-60 -12 c0 -4 -4 -8 -9 -8 -6 0 -12 4 -15 8 -3 5 1 9 9 9 8 0 15 -4 15 -9z
m-143 -24 c-2 -3 -33 -7 -68 -11 -35 -3 -62 -3 -59 0 3 2 26 7 53 9 26 3 50 8
54 11 3 4 10 4 15 1 5 -3 7 -8 5 -10z m-517 -25 c51 -10 212 -7 283 6 15 3 27
1 27 -4 0 -10 -35 -20 -100 -28 -72 -9 -242 -6 -249 4 -3 6 -19 18 -36 27 -27
15 -28 17 -5 11 14 -3 50 -10 80 -16z m374 10 c-7 -12 -44 -17 -51 -7 -3 7 -1
8 5 4 7 -4 12 -3 12 3 0 5 9 9 19 8 11 0 18 -4 15 -8z m-3311 -50 c82 -44 184
-183 248 -340 55 -136 110 -402 88 -427 -4 -4 -9 -40 -13 -81 -3 -41 -8 -76
-10 -78 -1 -2 -6 42 -9 98 -4 71 -10 106 -20 117 -25 24 -47 8 -48 -35 -1 -21
-5 -49 -9 -63 -8 -24 -8 -23 -9 8 -1 29 -4 32 -32 32 -21 0 -28 4 -23 13 6 9
5 9 -8 -1 -12 -10 -18 -9 -28 3 -7 8 -16 12 -21 9 -17 -10 -31 7 -18 22 8 9
10 33 5 68 -9 84 -31 126 -111 219 -8 9 -30 17 -47 18 -31 1 -31 1 -8 8 36 11
80 -7 91 -37 6 -14 25 -48 44 -74 19 -26 41 -71 49 -100 8 -29 15 -47 15 -40
1 6 9 12 20 12 10 0 24 7 31 15 13 15 7 30 -11 30 -5 0 -9 3 -9 8 0 31 0 32 9
19 7 -11 10 -10 15 3 3 9 4 21 1 25 -3 5 -1 11 4 14 6 4 8 -6 6 -23 -3 -25 -1
-29 16 -26 19 4 19 4 -1 -22 -25 -33 -25 -38 3 -40 12 -1 33 -5 47 -8 20 -4
22 -3 8 5 -9 6 -15 17 -12 25 4 8 2 15 -3 15 -5 0 -15 33 -21 73 -7 41 -17 78
-23 84 -5 5 -12 23 -15 38 -7 40 -11 44 -34 38 -14 -4 -30 3 -45 17 -18 17
-25 19 -25 9 -1 -8 -11 -1 -25 16 -14 17 -25 25 -25 18 0 -6 5 -15 10 -18 6
-3 10 -11 10 -16 0 -16 -21 1 -30 25 l-9 21 0 -22 c-1 -13 -6 -23 -12 -23 -5
0 -7 -5 -3 -12 4 -7 3 -8 -5 -4 -8 5 -9 12 -2 20 7 8 5 15 -8 23 -10 6 -21 20
-23 31 -5 16 -1 20 13 17 10 -2 22 1 26 8 11 18 10 56 -2 50 -5 -2 -3 1 6 9
15 13 23 52 8 43 -4 -3 -10 2 -13 11 -5 13 -9 14 -22 3 -12 -10 -15 -10 -12 2
2 8 -3 13 -9 12 -7 -2 -13 2 -13 9 0 6 -3 8 -7 5 -3 -4 -13 -1 -21 6 -13 10
-14 9 -7 -2 4 -8 8 -29 7 -48 -1 -19 3 -31 8 -28 6 4 7 -1 3 -11 -9 -25 -8
-67 2 -84 6 -9 4 -11 -5 -5 -10 6 -12 4 -7 -8 3 -10 2 -17 -4 -17 -6 0 -7 -6
-3 -12 4 -8 3 -10 -2 -5 -5 5 -9 14 -9 20 -1 7 -6 11 -13 10 -6 -2 -9 3 -7 10
3 6 -5 23 -16 37 -11 14 -17 18 -13 10 7 -13 5 -13 -9 -1 -14 11 -17 11 -18 0
0 -8 -5 0 -10 16 -8 27 -6 33 24 60 38 34 49 56 37 74 -6 10 -12 10 -29 2 -33
-18 -24 -3 12 19 91 56 204 1 305 -146 11 -17 12 -17 6 6 -4 14 -10 27 -15 30
-4 3 -21 25 -37 48 -42 63 -127 129 -183 142 -53 13 -79 8 -124 -23 -24 -17
-27 -18 -16 -4 43 53 130 64 204 26z m-11 -171 c-15 -15 -16 -31 0 -22 7 5 8
3 2 -7 -5 -8 -9 -17 -9 -21 0 -3 -3 -9 -6 -13 -4 -3 -6 2 -6 12 0 41 -3 49
-12 35 -7 -11 -9 -11 -14 1 -4 11 0 15 13 12 11 -2 22 0 25 6 4 5 9 9 13 9 3
0 1 -5 -6 -12z m-212 -60 c-11 -12 -20 -17 -20 -10 0 6 5 14 10 17 6 3 10 16
10 28 1 20 2 20 11 5 7 -14 5 -23 -11 -40z m-1 -223 c57 -65 65 -83 51 -109
l-12 -23 -49 20 -49 21 0 63 c0 75 12 81 59 28z m167 -40 c-23 -18 -36 -19
-36 -4 0 5 4 8 8 5 4 -2 14 -1 22 5 23 14 27 10 6 -6z m48 -22 c8 -16 15 -21
16 -13 0 8 7 2 15 -14 8 -15 12 -33 8 -39 -4 -6 -1 -7 7 -2 10 6 12 4 6 -10
-5 -15 -4 -16 8 -6 12 10 14 9 9 -8 -8 -29 -32 -48 -42 -32 -5 7 -8 0 -8 -18
0 -30 5 -32 52 -16 19 6 19 6 3 -8 -10 -8 -15 -16 -12 -19 3 -4 -3 -5 -13 -4
-10 0 -17 -5 -15 -12 1 -8 -2 -11 -8 -7 -6 3 -8 10 -5 15 3 5 1 11 -4 14 -5 3
-11 0 -14 -8 -6 -14 -30 -16 -43 -4 -3 4 2 5 13 4 10 -2 23 6 30 18 15 25 16
39 4 31 -5 -3 -13 0 -17 6 -4 8 -3 9 4 5 7 -4 12 -2 12 4 0 6 -8 10 -17 8 -10
-2 -18 -12 -18 -23 1 -12 7 -19 15 -17 13 3 13 1 1 -10 -11 -10 -14 -10 -18 0
-3 6 -9 10 -13 7 -17 -10 -20 14 -4 29 15 16 11 41 -6 31 -5 -3 -13 3 -19 12
-6 10 -11 13 -11 7 0 -6 3 -14 7 -18 11 -10 12 -37 2 -30 -5 3 -9 12 -9 20 0
8 -5 12 -10 9 -6 -4 -5 4 1 19 7 14 15 23 20 21 4 -3 11 0 15 7 4 7 4 10 -1 6
-4 -4 -15 -2 -23 5 -11 8 -14 8 -9 0 4 -6 3 -14 -2 -17 -5 -4 -8 2 -6 11 1 10
8 17 14 16 6 -2 11 4 11 12 0 11 39 41 57 45 1 0 9 -12 17 -27z m-141 -73 c-3
-12 -8 -19 -11 -16 -5 6 5 36 12 36 2 0 2 -9 -1 -20z m397 -35 c0 -12 -19 -12
-23 0 -4 9 -1 12 9 8 7 -3 14 -7 14 -8z m-173 -14 c1 -11 -8 -23 -23 -30 -30
-13 -31 -4 -2 26 26 28 23 27 25 4z m-197 -176 c0 -7 11 -24 25 -39 29 -32 36
-68 8 -45 -31 26 6 -33 41 -64 l31 -28 -34 18 c-18 10 -42 29 -53 43 -16 20
-21 22 -28 10 -8 -13 -10 -13 -10 0 -1 9 -6 5 -15 -10 l-15 -25 6 30 c4 17 14
44 24 60 15 26 16 34 4 60 -7 17 -13 39 -13 50 0 14 4 9 14 -14 8 -18 15 -39
15 -46z m467 3 c-3 -8 -6 -5 -6 6 -1 11 2 17 5 13 3 -3 4 -12 1 -19z m-57
-150 c0 -5 -3 -8 -7 -8 -10 0 -43 32 -43 42 0 11 49 -24 50 -34z m-210 22 c0
-8 -31 -30 -43 -30 -3 0 -3 9 0 20 5 20 43 29 43 10z m54 -79 c46 -103 58
-143 45 -155 -9 -8 -10 -8 -6 0 6 11 -26 44 -42 44 -5 0 -22 29 -37 65 -16 36
-33 65 -38 65 -5 0 -1 9 9 20 28 31 40 24 69 -39z m-224 -206 c0 -11 -14 7
-31 40 -7 13 -3 12 10 -5 11 -14 21 -29 21 -35z m94 -20 c6 -28 5 -29 -9 -11
-8 11 -15 29 -15 40 0 28 16 8 24 -29z m-69 -5 c3 -5 1 -10 -4 -10 -6 0 -11 5
-11 10 0 6 2 10 4 10 3 0 8 -4 11 -10z"/>
<path d="M3288 5743 c6 -2 18 -2 25 0 6 3 1 5 -13 5 -14 0 -19 -2 -12 -5z"/>
<path d="M4225 5570 c-3 -5 -1 -10 4 -10 6 0 11 5 11 10 0 6 -2 10 -4 10 -3 0
-8 -4 -11 -10z"/>
<path d="M4255 5571 c-3 -5 -2 -12 3 -15 5 -3 9 1 9 9 0 17 -3 19 -12 6z"/>
<path d="M4243 5535 c0 -8 4 -12 9 -9 5 3 6 10 3 15 -9 13 -12 11 -12 -6z"/>
<path d="M4284 5485 c-7 -17 12 -45 29 -45 6 0 2 6 -8 14 -11 8 -16 19 -12 30
4 9 4 16 1 16 -2 0 -7 -7 -10 -15z"/>
<path d="M4357 5493 c-4 -3 -7 -11 -7 -17 0 -6 5 -5 12 2 6 6 9 14 7 17 -3 3
-9 2 -12 -2z"/>
<path d="M4412 5258 c-14 -14 -16 -42 -3 -34 7 5 23 46 17 46 -1 0 -7 -5 -14
-12z"/>
<path d="M4550 5171 c0 -5 5 -13 10 -16 6 -3 10 -2 10 4 0 5 -4 13 -10 16 -5
3 -10 2 -10 -4z"/>
<path d="M4672 5005 c4 -4 3 -14 -4 -22 -8 -10 -8 -17 0 -25 7 -7 12 -10 13
-7 6 30 4 51 -5 56 -6 3 -8 3 -4 -2z"/>
<path d="M4605 4981 c-8 -27 11 -54 21 -28 3 9 1 24 -4 33 -9 16 -10 15 -17
-5z m12 -23 c-3 -8 -6 -5 -6 6 -1 11 2 17 5 13 3 -3 4 -12 1 -19z"/>
<path d="M4636 4702 c-3 -5 1 -9 9 -9 8 0 12 4 9 9 -3 4 -7 8 -9 8 -2 0 -6 -4
-9 -8z"/>
<path d="M4700 4636 c14 -18 13 -19 -2 -13 -24 9 -24 -19 0 -32 15 -8 17 -5
17 15 -1 14 -8 30 -15 37 -10 9 -10 7 0 -7z"/>
<path d="M3344 4606 c0 -15 5 -22 13 -19 9 4 10 10 2 24 -13 25 -15 24 -15 -5z"/>
<path d="M4591 4187 c-8 -10 -7 -14 2 -14 8 0 14 6 14 14 0 7 -1 13 -2 13 -2
0 -8 -6 -14 -13z"/>
<path d="M6115 5190 c10 -11 20 -20 23 -20 3 0 -3 9 -13 20 -10 11 -20 20 -23
20 -3 0 3 -9 13 -20z"/>
<path d="M6150 5166 c0 -2 8 -10 18 -17 15 -13 16 -12 3 4 -13 16 -21 21 -21
13z"/>
<path d="M6496 4770 c5 -5 25 -12 44 -15 l35 -5 -35 14 c-42 18 -58 20 -44 6z"/>
<path d="M6575 4573 l7 -42 -47 -12 c-71 -18 -141 -100 -95 -112 22 -6 34 2
49 31 11 21 65 52 91 52 5 0 10 -13 10 -29 0 -17 3 -32 8 -34 4 -3 36 1 70 8
64 14 91 25 58 25 -12 0 -16 5 -13 14 4 11 1 13 -10 9 -10 -4 -14 -2 -10 5 4
6 -9 17 -32 28 -23 10 -49 33 -66 58 l-27 41 7 -42z"/>
<path d="M890 4810 c-8 -5 -12 -11 -9 -14 3 -3 14 1 25 9 21 16 8 20 -16 5z"/>
<path d="M1054 4749 c-4 -8 -3 -10 4 -5 7 4 12 3 12 -1 0 -15 60 -45 76 -39
22 9 6 28 -21 24 -13 -2 -32 5 -43 15 -15 14 -22 15 -28 6z"/>
<path d="M904 4732 c8 -13 157 -94 163 -89 4 5 -55 41 -126 76 -23 13 -40 18
-37 13z"/>
<path d="M1215 4589 c-1 -31 7 -30 12 1 1 10 -1 21 -5 24 -4 2 -7 -9 -7 -25z"/>
<path d="M462 4555 c1 -19 3 -33 6 -30 9 8 9 65 1 65 -5 0 -8 -16 -7 -35z"/>
<path d="M4597 4559 c7 -7 15 -10 18 -7 3 3 -2 9 -12 12 -14 6 -15 5 -6 -5z"/>
<path d="M2330 4459 c0 -5 5 -7 10 -4 6 3 10 8 10 11 0 2 -4 4 -10 4 -5 0 -10
-5 -10 -11z"/>
<path d="M586 3473 c-14 -15 -5 -43 14 -43 13 0 20 7 20 19 0 19 -23 35 -34
24z"/>
<path d="M605 3250 c3 -5 8 -10 11 -10 2 0 4 5 4 10 0 6 -5 10 -11 10 -5 0 -7
-4 -4 -10z"/>
<path d="M630 3071 c0 -7 -4 -9 -10 -6 -5 3 -10 1 -10 -5 0 -6 -4 -8 -10 -5
-6 3 -7 -1 -4 -10 4 -8 1 -22 -6 -30 -11 -14 -7 -19 12 -16 4 0 4 -7 1 -17 -6
-14 -4 -15 9 -4 11 9 18 10 23 2 3 -5 12 -10 18 -10 7 0 6 4 -3 10 -8 5 -10
10 -4 10 15 0 11 67 -4 82 -9 9 -12 9 -12 -1z"/>
<path d="M8423 2869 c12 -7 27 -7 45 0 25 9 24 9 -18 10 -36 0 -41 -2 -27 -10z"/>
<path d="M7655 2970 c3 -5 8 -10 11 -10 2 0 4 5 4 10 0 6 -5 10 -11 10 -5 0
-7 -4 -4 -10z"/>
<path d="M7605 2950 c-3 -5 -1 -10 4 -10 6 0 11 5 11 10 0 6 -2 10 -4 10 -3 0
-8 -4 -11 -10z"/>
<path d="M5720 2627 c0 -15 30 -80 36 -74 3 3 -4 22 -15 44 -11 21 -20 34 -21
30z"/>
<path d="M5580 2463 c0 -21 47 -47 56 -31 3 5 4 10 3 12 -52 34 -59 37 -59 19z"/>
<path d="M5647 2436 c-6 -15 1 -26 15 -26 11 0 10 27 -1 34 -5 3 -11 0 -14 -8z"/>
<path d="M5220 2378 c0 -9 5 -20 10 -23 13 -8 13 5 0 25 -8 13 -10 13 -10 -2z"/>
<path d="M5092 2330 c0 -14 2 -19 5 -12 2 6 2 18 0 25 -3 6 -5 1 -5 -13z"/>
<path d="M5645 2331 c3 -6 -9 -8 -27 -7 -18 2 -25 1 -15 -1 9 -2 15 -9 12 -14
-8 -12 12 -11 36 2 19 10 18 29 -2 29 -6 0 -8 -4 -4 -9z"/>
<path d="M3857 2403 c-4 -3 -7 -11 -7 -17 0 -6 5 -5 12 2 6 6 9 14 7 17 -3 3
-9 2 -12 -2z"/>
<path d="M3423 1784 c-10 -28 17 -93 56 -134 21 -22 43 -40 50 -40 36 0 11 80
-49 153 -34 40 -47 45 -57 21z"/>
<path d="M3560 1705 c0 -5 5 -17 10 -25 5 -8 10 -10 10 -5 0 6 -5 17 -10 25
-5 8 -10 11 -10 5z"/>
<path d="M3353 1676 c2 -23 24 -33 24 -12 0 8 -4 13 -8 10 -4 -2 -10 2 -13 8
-3 7 -5 4 -3 -6z"/>
<path d="M3590 1640 c6 -11 13 -20 16 -20 2 0 0 9 -6 20 -6 11 -13 20 -16 20
-2 0 0 -9 6 -20z"/>
<path d="M3556 1368 c3 -5 10 -6 15 -3 13 9 11 12 -6 12 -8 0 -12 -4 -9 -9z"/>
<path d="M3342 1450 c0 -14 2 -19 5 -12 2 6 2 18 0 25 -3 6 -5 1 -5 -13z"/>
<path d="M3310 1380 c-12 -7 -10 -9 7 -7 12 0 19 5 17 9 -6 10 -6 10 -24 -2z"/>
<path d="M5291 5809 c8 -16 14 -18 22 -10 9 9 8 14 -3 21 -24 16 -31 11 -19
-11z"/>
<path d="M1846 5808 c3 -4 22 -8 42 -8 65 0 264 -30 337 -52 135 -39 210 -104
284 -248 25 -46 46 -79 48 -73 7 20 -77 161 -129 217 -96 107 -211 142 -555
169 -17 2 -29 -1 -27 -5z"/>
<path d="M1683 5748 c-15 -18 -35 -58 -29 -58 2 0 13 16 25 35 20 35 22 46 4
23z"/>
<path d="M1620 5640 c-23 -44 -27 -65 -7 -35 17 26 38 75 32 75 -3 0 -14 -18
-25 -40z"/>
<path d="M2429 5562 c6 -12 16 -24 22 -28 8 -4 8 -1 0 14 -6 12 -16 24 -22 28
-8 4 -8 1 0 -14z"/>
<path d="M2560 5403 c0 -4 5 -15 10 -23 8 -13 10 -13 10 2 0 9 -4 20 -10 23
-5 3 -10 3 -10 -2z"/>
<path d="M1485 4860 c3 -5 12 -7 20 -3 21 7 19 13 -6 13 -11 0 -18 -4 -14 -10z"/>
<path d="M1295 4250 c-3 -5 3 -10 14 -10 12 0 21 5 21 10 0 6 -6 10 -14 10 -8
0 -18 -4 -21 -10z"/>
<path d="M6722 4105 c-10 -12 -8 -16 8 -25 25 -13 40 -5 40 21 0 23 -29 25
-48 4z"/>
<path d="M1435 4051 c-3 -6 3 -14 13 -20 14 -7 19 -6 19 4 0 7 -7 11 -15 7
-10 -3 -13 -1 -8 6 4 7 5 12 2 12 -3 0 -7 -4 -11 -9z"/>
<path d="M4737 4008 c-9 -7 -13 -18 -9 -23 4 -7 16 -2 31 12 26 25 9 33 -22
11z"/>
<path d="M4875 4013 c-25 -6 -55 -32 -55 -48 0 -19 -29 -26 -52 -14 -12 7 0
-13 28 -44 48 -55 71 -69 40 -25 -9 12 -16 29 -16 38 1 8 8 2 17 -15 17 -34
118 -141 148 -157 11 -6 -7 20 -41 58 -33 38 -64 78 -68 89 -3 11 6 5 21 -15
53 -68 146 -160 162 -160 9 0 -9 25 -45 63 -64 65 -94 105 -94 122 1 5 6 0 13
-13 21 -36 159 -172 176 -172 9 0 -9 25 -45 63 -64 65 -94 104 -94 122 0 5 9
-3 19 -20 26 -42 159 -170 167 -162 4 4 -22 37 -58 74 -36 38 -70 79 -77 93
-11 23 -11 23 3 6 37 -46 149 -156 154 -151 3 3 -5 17 -19 33 -13 15 -39 45
-59 67 -19 22 -4 11 33 -25 95 -92 91 -103 -43 -114 -25 -2 -10 -3 32 -2 81 1
104 12 94 42 -9 28 -135 156 -147 149 -5 -4 -8 -3 -7 2 6 22 -43 104 -67 113
-27 10 -84 12 -120 3z"/>
<path d="M4062 3994 c-12 -8 -20 -19 -17 -24 3 -5 15 0 26 11 26 26 20 34 -9
13z"/>
<path d="M4198 4001 c-41 -9 -78 -36 -78 -58 0 -22 59 -103 122 -165 79 -80
93 -73 19 9 -33 37 -65 80 -70 95 -12 35 -6 36 11 3 21 -39 158 -185 175 -185
8 0 -13 30 -49 70 -35 39 -69 84 -76 100 -15 38 -9 38 15 1 32 -51 144 -171
160 -171 9 0 -1 19 -29 50 -64 75 -98 122 -98 134 0 6 11 -2 23 -19 12 -16 43
-52 69 -80 26 -27 53 -58 61 -69 8 -10 20 -17 27 -14 8 2 -11 31 -53 77 -36
41 -70 86 -76 102 -13 37 -6 37 13 2 8 -16 33 -48 56 -73 23 -25 53 -58 66
-74 14 -16 27 -26 30 -23 3 3 -24 42 -60 87 -64 78 -92 126 -38 64 106 -122
124 -145 119 -158 -4 -9 -24 -16 -54 -19 l-48 -3 50 -2 c28 -1 57 2 65 8 22
14 -6 62 -93 155 -40 44 -81 94 -90 112 -9 17 -25 34 -34 37 -39 11 -100 14
-135 7z"/>
<path d="M4402 3997 c-7 -8 -7 -18 -2 -27 8 -12 10 -12 10 -1 0 8 8 20 18 27
15 12 15 13 1 14 -9 0 -21 -6 -27 -13z"/>
<path d="M4533 4003 c-25 -5 -43 -24 -48 -50 -2 -10 -4 -20 -5 -23 -1 -3 -2
-9 -1 -13 2 -10 -15 -1 -44 22 l-20 16 20 -25 c11 -13 30 -36 43 -50 l23 -25
-6 30 -7 30 21 -32 c29 -47 149 -163 167 -163 3 0 -19 27 -50 61 -31 33 -63
75 -72 92 -13 28 -13 30 0 13 55 -69 161 -176 173 -176 9 0 -9 26 -42 62 -63
68 -95 115 -95 138 1 8 6 3 13 -12 16 -38 156 -188 174 -188 8 0 -12 29 -47
68 -61 66 -96 119 -87 129 3 3 11 -6 19 -20 20 -39 151 -177 166 -177 8 0 -15
33 -50 73 -62 68 -88 106 -88 124 0 4 9 -5 19 -22 26 -41 149 -170 156 -163 3
3 -24 40 -60 82 -36 43 -65 80 -65 83 0 4 1 4 3 2 2 -2 33 -36 70 -76 37 -40
67 -79 67 -88 0 -9 -10 -20 -22 -25 -21 -9 -20 -9 7 -7 60 4 40 46 -82 173
-27 29 -55 66 -63 83 -19 47 -46 61 -110 60 -30 -1 -65 -4 -77 -6z"/>
<path d="M5442 3988 c2 -17 10 -23 28 -23 18 0 26 6 28 23 3 19 -1 22 -28 22
-27 0 -31 -3 -28 -22z"/>
<path d="M4110 3890 c23 -27 44 -50 46 -50 9 0 -19 45 -44 73 -44 47 -46 29
-2 -23z"/>
<path d="M4713 3693 c9 -2 23 -2 30 0 6 3 -1 5 -18 5 -16 0 -22 -2 -12 -5z"/>
<path d="M4398 3683 c7 -3 16 -2 19 1 4 3 -2 6 -13 5 -11 0 -14 -3 -6 -6z"/>
<path d="M4783 3683 c9 -2 25 -2 35 0 9 3 1 5 -18 5 -19 0 -27 -2 -17 -5z"/>
<path d="M8230 3507 c0 -2 21 -19 46 -37 26 -18 45 -27 42 -19 -4 12 -88 66
-88 56z"/>
<path d="M8345 3441 c11 -13 28 -27 39 -33 29 -16 11 7 -27 33 l-32 23 20 -23z"/>
<path d="M8442 3356 c18 -24 34 -42 36 -41 8 7 -44 85 -56 85 -7 0 1 -19 20
-44z"/>
<path d="M7947 3150 c7 -8 20 -15 29 -16 9 -1 13 1 9 4 -4 4 -10 7 -13 7 -4 0
-14 4 -22 9 -12 7 -13 6 -3 -4z"/>
<path d="M7964 3102 c-10 -15 -8 -18 6 -19 13 -1 16 4 13 18 -6 23 -6 23 -19
1z"/>
<path d="M7845 3090 c-3 -6 1 -7 9 -4 18 7 21 14 7 14 -6 0 -13 -4 -16 -10z"/>
<path d="M7535 3050 c-14 -16 -21 -17 -32 -8 -8 6 -13 7 -12 2 1 -5 1 -16 0
-24 -1 -12 -5 -10 -17 5 l-16 20 4 -20 c2 -11 -2 -19 -7 -18 -6 1 -11 -7 -11
-18 0 -18 2 -19 12 -4 8 11 13 12 16 4 2 -7 12 -13 21 -15 13 -2 15 2 8 15 -5
9 -7 21 -3 27 10 13 32 16 32 4 0 -5 7 -10 15 -10 8 0 15 -8 15 -17 1 -16 3
-15 19 4 14 17 21 19 31 10 10 -9 11 -9 6 0 -3 6 -2 14 3 17 5 4 12 -2 14 -11
4 -17 5 -17 6 0 0 10 5 15 11 12 6 -4 7 1 3 11 -4 12 -8 14 -11 5 -3 -9 -9 -7
-24 6 -15 13 -19 14 -16 3 2 -8 -3 -14 -9 -12 -7 1 -12 -1 -12 -5 3 -21 -2
-34 -11 -28 -6 4 -7 11 -4 17 5 7 2 9 -8 5 -24 -9 -30 4 -11 25 9 10 14 18 11
18 -3 0 -13 -9 -23 -20z m-47 -65 c-3 -3 -9 2 -12 12 -6 14 -5 15 5 6 7 -7 10
-15 7 -18z"/>
<path d="M7705 3059 c-4 -6 -5 -12 -2 -15 2 -3 7 2 10 11 7 17 1 20 -8 4z"/>
<path d="M7736 3058 c3 -5 10 -6 15 -3 13 9 11 12 -6 12 -8 0 -12 -4 -9 -9z"/>
<path d="M7856 3033 c-6 -14 -5 -15 5 -6 7 7 10 15 7 18 -3 3 -9 -2 -12 -12z"/>
<path d="M7804 3028 c-4 -6 -3 -8 4 -4 5 3 12 1 14 -6 3 -8 6 -9 11 -1 4 6 0
13 -8 17 -8 3 -17 0 -21 -6z"/>
<path d="M7770 3015 c-7 -9 -10 -18 -6 -22 3 -3 6 -1 6 6 0 7 4 10 8 7 5 -3 9
1 9 9 0 19 -2 19 -17 0z"/>
<path d="M7883 3015 c0 -8 4 -12 9 -9 5 3 6 10 3 15 -9 13 -12 11 -12 -6z"/>
<path d="M7315 3010 c-4 -6 -10 -8 -14 -6 -4 3 -8 -1 -8 -9 0 -13 4 -12 19 2
18 16 22 23 14 23 -3 0 -8 -5 -11 -10z"/>
<path d="M7199 2973 c-1 -5 -1 -11 0 -15 2 -11 -13 -10 -25 2 -7 7 -11 6 -11
-4 0 -8 4 -13 8 -11 3 3 9 -4 12 -16 4 -15 2 -18 -7 -10 -9 7 -19 6 -36 -6
-22 -16 -23 -16 -17 1 4 10 3 15 -3 11 -14 -9 -12 -27 5 -49 12 -16 18 -17 28
-7 6 6 12 16 12 21 0 6 5 10 10 9 6 -1 9 -6 7 -12 -2 -6 4 -5 12 2 10 9 14 23
10 40 l-5 26 13 -25 c13 -25 47 -34 64 -18 4 4 12 3 19 -2 8 -7 11 -1 10 21
-1 20 -9 35 -21 41 -18 9 -18 8 -2 -5 16 -13 16 -16 2 -33 -13 -15 -15 -16
-10 -2 2 9 -3 22 -12 29 -14 11 -15 11 -5 0 13 -15 6 -44 -8 -35 -5 3 -7 9 -4
14 3 4 -3 14 -12 21 -15 12 -16 12 -8 -1 13 -20 15 -40 5 -40 -8 0 -23 38 -21
53 1 4 -1 7 -4 7 -3 0 -6 -3 -6 -7z m-36 -65 c-4 -7 -8 -16 -9 -20 -1 -5 -2
-11 -3 -15 0 -4 -7 -1 -13 6 -11 10 -9 15 6 27 24 17 30 18 19 2z"/>
<path d="M7920 2939 c0 -5 5 -7 10 -4 6 3 10 8 10 11 0 2 -4 4 -10 4 -5 0 -10
-5 -10 -11z"/>
<path d="M6938 2922 c-11 -15 -30 -21 -40 -12 -9 6 -37 7 -33 0 3 -5 1 -11 -4
-14 -5 -4 -11 -1 -14 6 -2 7 -2 2 0 -11 4 -21 2 -23 -11 -12 -9 7 -14 17 -11
20 2 4 -2 8 -10 8 -8 0 -13 -3 -12 -6 1 -3 -2 -6 -8 -6 -5 0 -9 4 -7 9 2 5 -3
5 -10 -1 -24 -18 -51 -24 -45 -10 3 8 -1 14 -9 14 -7 0 -11 -4 -9 -8 3 -3 -3
-13 -12 -20 -14 -12 -16 -12 -11 2 4 9 1 16 -8 16 -7 0 -11 -4 -8 -8 2 -4 0
-10 -5 -13 -5 -3 -7 -16 -4 -29 5 -22 5 -22 -10 -2 -12 15 -13 23 -4 35 7 8 0
5 -15 -5 -15 -11 -29 -29 -32 -40 -5 -20 -5 -20 9 -1 11 14 15 16 15 5 0 -11
2 -11 9 -1 7 11 9 10 15 -3 8 -22 29 -8 23 17 -4 12 -1 18 6 15 7 -2 11 -13 9
-23 -2 -15 -1 -16 7 -5 13 20 41 22 48 4 5 -12 7 -12 14 -1 7 10 9 10 9 -1 0
-11 4 -9 15 5 8 10 15 15 15 11 0 -4 9 -3 19 3 14 7 22 7 26 0 4 -6 10 -8 15
-5 5 3 11 1 15 -5 4 -6 12 -7 18 -3 17 11 70 11 84 1 19 -15 23 8 9 48 -9 24
-15 31 -15 19 -1 -16 -3 -17 -10 -5 -6 8 -7 18 -5 22 10 16 -5 8 -18 -10z m21
-47 c-1 -16 -2 -16 -9 5 l-8 25 -1 -24 c-1 -13 -4 -22 -7 -18 -4 3 -3 18 0 34
6 21 9 24 17 12 5 -7 8 -23 8 -34z m-62 5 c3 -21 -12 -36 -22 -20 -4 6 -11 7
-17 4 -7 -5 -8 -2 -3 7 25 43 36 45 42 9z m20 -2 c2 -17 0 -19 -7 -8 -5 8 -6
18 -4 22 8 12 10 10 11 -14z m65 -3 c3 -13 1 -22 -3 -19 -9 5 -13 44 -5 44 2
0 6 -11 8 -25z m-196 -13 c-5 -9 -15 -9 -46 -2 -3 0 4 7 14 15 21 16 44 6 32
-13z m33 7 c-16 -10 -23 -4 -14 10 3 6 11 8 17 5 6 -4 5 -9 -3 -15z m-89 3 c0
-5 -7 -9 -15 -9 -8 0 -12 4 -9 9 3 4 9 8 15 8 5 0 9 -4 9 -8z"/>
<path d="M6870 2881 c0 -6 4 -13 10 -16 6 -3 7 1 4 9 -7 18 -14 21 -14 7z"/>
<path d="M6473 2831 c-10 -15 -9 -22 2 -31 14 -11 19 -7 16 13 0 4 4 7 9 7 6
0 10 8 10 18 0 13 -2 14 -9 3 -6 -9 -10 -10 -12 -2 -2 6 -9 3 -16 -8z m14 -16
c0 -8 -4 -12 -9 -9 -5 3 -6 10 -3 15 9 13 12 11 12 -6z"/>
<path d="M6246 2792 c3 -51 20 -59 19 -8 0 23 -5 43 -10 43 -6 0 -9 -16 -9
-35z"/>
<path d="M6168 2808 c11 -14 10 -18 -7 -28 -20 -10 -25 -7 -22 13 1 5 -3 6 -8
3 -5 -3 -7 -21 -5 -39 4 -29 3 -30 -8 -12 -18 28 -37 29 -31 2 3 -16 2 -18 -5
-8 -7 10 -14 10 -30 2 -17 -9 -22 -8 -27 9 -3 11 -3 25 1 32 5 8 0 7 -11 -2
-17 -14 -18 -13 -12 2 3 10 1 20 -5 24 -7 4 -8 3 -4 -4 3 -6 -3 -16 -15 -22
-15 -9 -18 -15 -10 -23 16 -16 14 -23 -8 -24 -15 -1 -18 5 -15 35 3 31 2 33
-6 15 -11 -27 -25 -31 -15 -5 5 13 3 14 -6 5 -13 -13 -3 -37 12 -28 5 4 9 2 9
-4 0 -5 -4 -13 -10 -16 -5 -3 -10 -12 -10 -18 0 -8 3 -8 9 1 6 10 11 10 21 -3
13 -16 15 -15 27 1 10 13 13 14 13 3 1 -8 6 -4 14 10 10 18 14 20 19 9 3 -8
16 -14 29 -13 12 1 28 -2 35 -7 7 -5 14 -5 18 2 3 6 10 8 15 5 4 -3 13 2 20
10 7 8 9 15 6 15 -4 0 5 10 20 23 25 22 25 23 8 37 -17 14 -18 13 -6 -2z
m-164 -46 c2 -4 1 -13 -3 -20 -4 -8 -11 -5 -19 8 -10 16 -10 20 2 20 8 0 17
-4 20 -8z m97 -35 c-10 -9 -11 -8 -5 6 3 10 9 15 12 12 3 -3 0 -11 -7 -18z"/>
<path d="M6055 2781 c-3 -5 -2 -12 3 -15 5 -3 9 1 9 9 0 17 -3 19 -12 6z"/>
<path d="M6296 2771 c-4 -5 -2 -12 3 -15 5 -4 12 -2 15 3 4 5 2 12 -3 15 -5 4
-12 2 -15 -3z"/>
<path d="M4293 2742 c0 -12 3 -19 6 -17 2 3 11 -1 20 -7 10 -8 8 -3 -4 12 -11
14 -21 27 -22 29 -1 2 -1 -6 0 -17z"/>
<path d="M8666 2747 c3 -10 9 -15 12 -12 3 3 0 11 -7 18 -10 9 -11 8 -5 -6z"/>
<path d="M4656 2681 c-3 -5 0 -14 8 -20 10 -9 15 -8 19 3 4 11 1 13 -10 9 -11
-4 -14 -2 -9 5 4 7 5 12 2 12 -3 0 -7 -4 -10 -9z"/>
<path d="M4717 2668 c4 -19 3 -20 -7 -8 -9 12 -11 12 -8 1 6 -20 35 -22 49 -5
9 12 9 18 0 27 -10 9 -11 8 -5 -8 7 -20 7 -20 -14 -2 -20 19 -21 18 -15 -5z"/>
<path d="M4772 2670 c0 -14 2 -19 5 -12 2 6 2 18 0 25 -3 6 -5 1 -5 -13z"/>
<path d="M8660 2665 c0 -8 4 -15 10 -15 5 0 7 7 4 15 -4 8 -8 15 -10 15 -2 0
-4 -7 -4 -15z"/>
</g>
</svg>
